<svg width="391" height="190" viewBox="0 0 391 190" fill="none" xmlns="http://www.w3.org/2000/svg">
<g filter="url(#filter0_d_940_118)">
<rect width="367.741" height="109.351" transform="translate(26.1187) rotate(11.6698)" fill="#F3A310"/>
<path d="M95.0674 83.5109C101.646 84.8696 104.656 79.152 106.142 71.9557C106.661 69.4439 107.114 66.5446 107.545 62.8506C108.541 63.0565 109.442 63.3256 110.399 63.5233L111.352 59.2099C108.242 58.5676 103.92 57.6542 101.03 57.0572C98.6654 56.6312 97.998 56.7427 97.3712 56.7588L97.2359 61.1372C97.7988 61.1287 98.0751 60.9987 100.161 61.3671C100.898 61.5195 101.249 61.6334 102.226 61.8352C101.888 64.6754 101.416 68.6725 101.017 70.6061C99.621 77.3638 98.1729 79.746 95.8206 79.2601C94.505 78.9884 93.7455 77.2311 94.2559 74.1565L89.0771 73.066C88.2111 77.4598 89.5854 82.3787 95.0674 83.5109ZM125.709 90.0268L129.313 86.9675C128.383 86.3389 127.363 84.7357 127.537 83.6909L130.448 69.5973L125.445 68.5639L122.995 80.4248C122.472 82.9565 120.776 84.2273 117.717 83.741C116.022 83.391 115.747 82.8144 115.783 81.4294C117.25 74.1252 118.457 68.8873 118.397 66.9627L113.218 66.4751C113.362 67.6896 112.537 71.9878 111.648 76.2937C111.252 78.2074 110.833 80.1369 110.496 81.7715C109.771 85.2799 113.269 87.0624 116.299 87.6882L116.478 87.7253C119.481 88.283 121.88 88.2382 123.692 87.0121C123.905 88.0953 124.553 89.1852 125.709 90.0268ZM136.93 80.5802C138.599 81.8602 141.703 83.4366 142.897 84.5978C143.738 85.4573 144.021 86.2016 143.778 87.3778C143.416 89.132 141.081 89.0654 139.905 88.8225C137.732 88.3737 136.94 87.3787 137.384 85.2258L132.341 84.1842C131.456 88.47 134.01 91.8035 139.113 92.8575C140.249 93.0922 141.474 93.1997 142.644 93.1711C144.892 93.0535 148.125 91.8921 148.792 88.6628C149.961 83.0014 145.241 81.2991 140.566 78.1719C140.082 77.6978 140.045 77.2744 140.164 76.6963C140.325 75.9189 141.053 75.6121 142.688 75.9497C144.602 76.345 145.888 77.4628 146.726 78.8413L150.925 76.3208C149.211 73.4517 146.223 72.5228 143.452 71.9505C139.963 71.23 135.92 71.6836 135.155 75.3914C134.698 77.6041 135.46 79.4452 136.93 80.5802ZM160.606 87.8188C161.097 85.8418 161.509 83.7446 162.312 80.4602C164.964 81.0078 168.105 81.6982 170.836 82.2623L171.736 78.208C171.576 78.1751 165.373 76.8108 163.2 76.362C163.5 75.0106 163.92 73.081 164.191 71.7654L159.213 70.6123C158.924 72.0077 158.489 74.017 158.2 75.4124L157.901 75.3506C157.244 75.2148 156.33 75.1092 155.819 75.1699L155.318 79.3065C155.869 79.2541 156.444 79.2896 157.002 79.4049L157.281 79.4625C156.506 82.7112 156.009 84.9157 155.599 86.7015L155.426 87.5387C155.072 89.2531 154.838 90.7846 155.24 92.364C156.046 95.6066 158.905 96.6545 162.573 97.412C164.268 97.762 165.836 97.9196 167.132 97.4806C169.628 96.6659 171.165 94.6556 171.48 94.1386L167.745 91.2888C167.524 91.6587 167.024 92.9689 165.872 93.313C165.316 93.4891 164.661 93.6447 163.365 93.3771C163.106 93.3235 162.436 93.1437 162.086 93.0297C160.469 92.4048 159.889 91.2874 160.441 88.6162L160.606 87.8188ZM206.274 106.313L211.238 107.339C211.46 106.262 211.719 105.11 211.958 103.954C212.925 99.2692 213.912 94.0898 214.863 89.4849C215.546 86.1758 216.212 83.1541 216.805 80.8863L211.945 79.8618C211.049 83.2933 210.22 87.0087 209.437 90.7962L208.449 96.287C208.416 91.4165 205.365 82.6388 203.627 78.3724L199.45 77.3641L193.982 103.837L198.886 104.85C199.524 101.76 199.994 99.3836 201.225 93.4233L202.082 89.2769C203.851 94.1942 205.546 100.78 206.274 106.313ZM229.538 83.641C229.317 83.907 225.386 88.2496 218.632 90.0555L220.621 94.9144C223.513 93.9944 225.955 92.3371 227.66 90.9226L223.739 110.108L228.882 111.17L234.177 85.5344L229.538 83.641ZM244.09 102.048C244.09 102.048 244.161 101.501 244.256 101.043C245.009 97.3949 246.466 91.6475 249.536 92.2816C250.951 92.5739 251.086 93.3292 251.293 95.4503L244.09 102.048ZM251.006 100.463C251.006 100.463 250.939 100.885 250.824 101.443C249.856 106.128 248.624 111.09 245.494 110.444C244.138 110.164 243.77 109.132 243.642 107.131L251.006 100.463ZM250.428 88.1634C243.312 86.6936 240.49 93.614 239.111 100.292C237.752 106.87 238.019 113.223 244.897 114.644C251.595 116.027 254.483 109.287 255.817 102.828C257.118 96.5288 256.947 89.5097 250.428 88.1634ZM265.22 106.412C265.22 106.412 265.291 105.866 265.386 105.407C266.139 101.759 267.597 96.0118 270.667 96.6459C272.082 96.9382 272.217 97.6935 272.423 99.8146L265.22 106.412ZM272.136 104.827C272.136 104.827 272.07 105.25 271.954 105.808C270.987 110.492 269.754 115.455 266.624 114.808C265.269 114.528 264.9 113.496 264.773 111.495L272.136 104.827ZM271.559 92.5277C264.442 91.0578 261.62 97.9783 260.241 104.656C258.882 111.235 259.15 117.588 266.027 119.008C272.725 120.391 275.614 113.651 276.948 107.192C278.249 100.893 278.077 93.874 271.559 92.5277ZM286.35 110.776C286.35 110.776 286.422 110.23 286.516 109.771C287.27 106.123 288.727 100.376 291.797 101.01C293.212 101.302 293.347 102.058 293.553 104.179L286.35 110.776ZM293.266 109.191C293.266 109.191 293.2 109.614 293.085 110.172C292.117 114.857 290.884 119.819 287.755 119.172C286.399 118.893 286.03 117.86 285.903 115.859L293.266 109.191ZM292.689 96.892C285.572 95.4221 282.751 102.343 281.371 109.021C280.013 115.599 280.28 121.952 287.157 123.372C293.855 124.756 296.744 118.015 298.078 111.557C299.379 105.257 299.208 98.2383 292.689 96.892Z" fill="#FDFDFD"/>
<path d="M194.682 92.9031L215.812 97.2674L215.392 99.3007L194.262 94.9364L194.682 92.9031Z" fill="#FDFDFD"/>
</g>
<defs>
<filter id="filter0_d_940_118" x="0" y="0" width="390.258" height="189.474" filterUnits="userSpaceOnUse" color-interpolation-filters="sRGB">
<feFlood flood-opacity="0" result="BackgroundImageFix"/>
<feColorMatrix in="SourceAlpha" type="matrix" values="0 0 0 0 0 0 0 0 0 0 0 0 0 0 0 0 0 0 127 0" result="hardAlpha"/>
<feOffset dy="4"/>
<feGaussianBlur stdDeviation="2"/>
<feComposite in2="hardAlpha" operator="out"/>
<feColorMatrix type="matrix" values="0 0 0 0 0 0 0 0 0 0 0 0 0 0 0 0 0 0 0.25 0"/>
<feBlend mode="normal" in2="BackgroundImageFix" result="effect1_dropShadow_940_118"/>
<feBlend mode="normal" in="SourceGraphic" in2="effect1_dropShadow_940_118" result="shape"/>
</filter>
</defs>
</svg>
