<svg width="391" height="190" viewBox="0 0 391 190" fill="none" xmlns="http://www.w3.org/2000/svg">
<g filter="url(#filter0_d_917_101)">
<rect width="367.741" height="109.351" transform="translate(26.1187) rotate(11.6698)" fill="#F3A310"/>
<path d="M84.5022 81.3288C91.0805 82.6875 94.0905 76.9698 95.5768 69.7735C96.0956 67.2618 96.5489 64.3624 96.9793 60.6685C97.9761 60.8744 98.8766 61.1435 99.8334 61.3411L100.787 57.0277C97.6769 56.3854 93.3553 55.4721 90.4648 54.8751C88.1002 54.449 87.4328 54.5606 86.806 54.5766L86.6707 58.955C87.2336 58.9466 87.5099 58.8166 89.5954 59.185C90.333 59.3373 90.6836 59.4513 91.6603 59.6531C91.3231 62.4933 90.8509 66.4903 90.4515 68.424C89.0558 75.1817 87.6077 77.5638 85.2554 77.078C83.9398 76.8063 83.1804 75.049 83.6907 71.9743L78.5119 70.8839C77.646 75.2777 79.0203 80.1965 84.5022 81.3288ZM115.144 87.8446L118.748 84.7854C117.818 84.1568 116.798 82.5536 116.972 81.5088L119.883 67.4152L114.88 66.3818L112.43 78.2427C111.907 80.7744 110.21 82.0451 107.152 81.5589C105.457 81.2089 105.181 80.6323 105.218 79.2473C106.685 71.9431 107.892 66.7051 107.832 64.7806L102.653 64.293C102.797 65.5075 101.972 69.8057 101.083 74.1115C100.687 76.0252 100.268 77.9547 99.9304 79.5893C99.2057 83.0978 102.704 84.8802 105.734 85.5061L105.913 85.5431C108.915 86.1009 111.315 86.0561 113.127 84.8299C113.34 85.9131 113.988 87.003 115.144 87.8446ZM126.365 78.3981C128.034 79.678 131.138 81.2544 132.332 82.4156C133.173 83.2752 133.456 84.0195 133.213 85.1956C132.85 86.9498 130.515 86.8833 129.339 86.6404C127.167 86.1916 126.374 85.1966 126.819 83.0437L121.776 82.002C120.89 86.2879 123.444 89.6213 128.548 90.6753C129.684 90.91 130.909 91.0175 132.079 90.9889C134.327 90.8713 137.56 89.71 138.227 86.4806C139.396 80.8193 134.676 79.117 130.001 75.9898C129.517 75.5157 129.48 75.0923 129.599 74.5142C129.76 73.7367 130.488 73.4299 132.123 73.7676C134.037 74.1628 135.323 75.2807 136.161 76.6592L140.36 74.1387C138.646 71.2696 135.657 70.3406 132.886 69.7683C129.398 69.0478 125.355 69.5015 124.589 73.2093C124.132 75.422 124.895 77.2631 126.365 78.3981ZM150.04 85.6366C150.532 83.6597 150.944 81.5625 151.747 78.2781C154.399 78.8257 157.54 79.5161 160.271 80.0801L161.171 76.0259C161.011 75.9929 154.808 74.6286 152.635 74.1798C152.935 72.8284 153.355 70.8989 153.626 69.5832L148.647 68.4302C148.359 69.8256 147.923 71.8349 147.635 73.2303L147.336 73.1685C146.678 73.0326 145.765 72.9271 145.254 72.9877L144.752 77.1243C145.304 77.0719 145.878 77.1075 146.437 77.2227L146.716 77.2804C145.941 80.529 145.444 82.7335 145.033 84.5194L144.86 85.3566C144.506 87.071 144.273 88.6024 144.674 90.1818C145.48 93.4244 148.34 94.4723 152.008 95.2299C153.702 95.5799 155.27 95.7374 156.567 95.2985C159.063 94.4838 160.6 92.4735 160.915 91.9565L157.18 89.1067C156.958 89.4765 156.459 90.7868 155.307 91.1308C154.751 91.307 154.096 91.4626 152.8 91.1949C152.541 91.1414 151.871 90.9616 151.521 90.8476C149.904 90.2226 149.324 89.1052 149.876 86.434L150.04 85.6366ZM195.709 104.131L200.673 105.156C200.895 104.08 201.154 102.928 201.392 101.772C202.36 97.0871 203.347 91.9076 204.298 87.3028C204.981 83.9937 205.647 80.9719 206.24 78.7042L201.38 77.6796C200.484 81.1111 199.655 84.8265 198.872 88.614L197.884 94.1049C197.85 89.2344 194.8 80.4567 193.062 76.1902L188.885 75.182L183.417 101.655L188.321 102.668C188.959 99.5778 189.429 97.2015 190.66 91.2411L191.516 87.0948C193.286 92.0121 194.981 98.5976 195.709 104.131ZM205.52 99.1948C204.68 103.261 206.642 106.847 212.263 108.008C215.433 108.662 217.842 108.37 219.574 107.231C221.498 105.966 222.472 104.671 223.04 101.92C223.74 98.5308 222.605 95.5735 219.2 93.6439C221.252 93.6728 223.846 91.2779 224.373 88.7263C225.287 84.3009 222.354 82.1986 217.629 81.2228L217.41 81.1775C211.828 80.0247 209.108 83.4328 208.947 83.7112L212.513 87.2746C213.021 86.631 214.601 84.7128 216.754 85.1575C218.628 85.5445 219.511 86.7037 219.239 88.0194C218.708 90.5909 216.113 91.2812 213.542 90.7501L213.223 90.6842L212.399 94.6711C213.994 95.0005 215.698 95.7058 216.698 96.7021C217.63 97.6221 218.354 98.6446 217.901 100.837C217.514 102.711 215.672 104.285 213.28 103.79C211.685 103.461 210.046 102.541 210.524 100.228L205.52 99.1948ZM232.085 105.222L230.914 111.298L233.17 111.744C232.602 114.495 231.317 115.684 229.273 116.322L230.482 120.334C234.124 119.506 236.554 116.496 237.365 112.569L237.377 112.509L238.592 106.524L232.085 105.222ZM256.119 98.6503C256.016 97.9431 256.055 97.3485 256.158 96.8501C256.57 94.8567 258.485 94.3378 259.96 94.6425C262.014 95.0666 262.932 96.3578 262.454 98.6701C261.75 102.079 255.868 104.293 252.903 106.071C250.334 107.64 248.323 109.324 247.565 111.183C247.35 111.721 247.219 112.255 247.112 112.773C246.976 113.431 246.884 114.077 246.761 114.675L263.904 118.216L264.789 113.93L254.503 111.806C254.734 110.69 260.491 107.472 261.814 106.602C263.758 105.237 266.559 103.654 267.374 99.707C268.485 94.3248 265.912 91.4862 260.53 90.3746C255.427 89.3206 251.894 91.8333 251.108 95.6408L251.005 96.1391C250.897 96.865 250.882 97.839 250.942 98.4541L256.119 98.6503ZM275.785 108.594C275.785 108.594 275.856 108.048 275.951 107.589C276.705 103.941 278.162 98.1939 281.232 98.828C282.647 99.1203 282.782 99.8757 282.988 101.997L275.785 108.594ZM282.701 107.009C282.701 107.009 282.635 107.432 282.519 107.99C281.552 112.674 280.319 117.637 277.189 116.99C275.834 116.71 275.465 115.678 275.338 113.677L282.701 107.009ZM282.124 94.7098C275.007 93.24 272.185 100.16 270.806 106.838C269.447 113.417 269.715 119.77 276.592 121.19C283.29 122.574 286.179 115.833 287.513 109.375C288.814 103.075 288.642 96.0562 282.124 94.7098ZM296.916 112.959C296.916 112.959 296.987 112.412 297.081 111.954C297.835 108.306 299.292 102.558 302.362 103.192C303.777 103.485 303.912 104.24 304.119 106.361L296.916 112.959ZM303.832 111.373C303.832 111.373 303.765 111.796 303.65 112.354C302.682 117.039 301.45 122.001 298.32 121.355C296.964 121.075 296.596 120.042 296.468 118.042L303.832 111.373ZM303.254 99.0741C296.138 97.6043 293.316 104.525 291.936 111.203C290.578 117.781 290.845 124.134 297.723 125.554C304.421 126.938 307.309 120.198 308.643 113.739C309.944 107.44 309.773 100.42 303.254 99.0741Z" fill="#FDFDFD"/>
<path d="M184.116 90.721L205.247 95.0853L204.827 97.1186L183.696 92.7543L184.116 90.721Z" fill="#FDFDFD"/>
</g>
<defs>
<filter id="filter0_d_917_101" x="0" y="0" width="390.258" height="189.474" filterUnits="userSpaceOnUse" color-interpolation-filters="sRGB">
<feFlood flood-opacity="0" result="BackgroundImageFix"/>
<feColorMatrix in="SourceAlpha" type="matrix" values="0 0 0 0 0 0 0 0 0 0 0 0 0 0 0 0 0 0 127 0" result="hardAlpha"/>
<feOffset dy="4"/>
<feGaussianBlur stdDeviation="2"/>
<feComposite in2="hardAlpha" operator="out"/>
<feColorMatrix type="matrix" values="0 0 0 0 0 0 0 0 0 0 0 0 0 0 0 0 0 0 0.25 0"/>
<feBlend mode="normal" in2="BackgroundImageFix" result="effect1_dropShadow_917_101"/>
<feBlend mode="normal" in="SourceGraphic" in2="effect1_dropShadow_917_101" result="shape"/>
</filter>
</defs>
</svg>
