<svg width="354" height="369" viewBox="0 0 354 369" fill="none" xmlns="http://www.w3.org/2000/svg">
<path d="M-63.4957 332.022C30.6697 381.064 183.33 381.064 277.495 332.022C371.661 282.98 371.65 203.462 277.495 154.42C183.341 105.378 30.6697 105.378 -63.4957 154.42C-157.661 203.462 -157.65 283.002 -63.4957 332.022Z" fill="#F5F5F5"/>
<path d="M279.238 294.095C273.973 296.246 268.071 296.246 262.807 294.095C258.312 291.932 258.312 288.492 262.807 286.251C268.069 284.089 273.976 284.089 279.238 286.251C283.778 288.436 283.778 291.966 279.238 294.095Z" fill="#E0E0E0"/>
<path d="M202.289 262.834C205.099 263.193 208.346 262.229 209.751 260.369C211.403 258.184 210.673 254.767 211.471 252.941C212.269 251.114 214.842 251.406 216.045 249.859C217.247 248.313 215.382 244.616 216.045 242.655C216.708 240.694 218.618 238.823 219.484 237.478C220.349 236.134 219.484 234.117 216.528 235.137C213.572 236.156 212.033 239.686 209.167 239.092C206.301 238.498 203.851 240.212 203.806 243.047C203.887 244.156 203.67 245.266 203.177 246.263C202.637 247.137 201.199 247.63 200.547 248.985L202.289 262.834Z" fill="#FFF2C1"/>
<path opacity="0.2" d="M202.289 262.834C205.099 263.193 208.346 262.229 209.751 260.369C211.403 258.184 210.673 254.767 211.471 252.941C212.269 251.114 214.842 251.406 216.045 249.859C217.247 248.313 215.382 244.616 216.045 242.655C216.708 240.694 218.618 238.823 219.484 237.478C220.349 236.134 219.484 234.117 216.528 235.137C213.572 236.156 212.033 239.686 209.167 239.092C206.301 238.498 203.851 240.212 203.806 243.047C203.887 244.156 203.67 245.266 203.177 246.263C202.637 247.137 201.199 247.63 200.547 248.985L202.289 262.834Z" fill="black"/>
<path d="M218.168 235.943C214.044 238.184 202.851 251.002 201.929 257.814" stroke="white" stroke-width="0.377099" stroke-miterlimit="10" stroke-linecap="round"/>
<path d="M264.066 228.616L213.854 199.708V76.2014L264.077 105.109L264.066 228.616Z" fill="#455A64"/>
<path d="M264.077 105.109L318.852 73.5796V197.075L264.066 228.616L264.077 105.109Z" fill="#37474F"/>
<path d="M213.854 76.2014L268.64 44.6721L318.853 73.5796L264.077 105.109L213.854 76.2014Z" fill="#37474F"/>
<path d="M298.354 208.907V187.876L284.149 196.011L284.16 217.03L298.354 208.907Z" fill="#E0E0E0"/>
<path d="M292.15 191.428L290.779 192.224V213.243L292.15 212.448V191.428Z" fill="#211C1C"/>
<path d="M269.809 193.759V182.039L279.204 176.627V188.347L269.809 193.759Z" fill="#E0E0E0"/>
<path d="M279.204 188.347L276.855 187.003V177.983L279.204 176.627V188.347Z" fill="#211C1C"/>
<path d="M269.809 191.058L276.855 187.002L279.204 188.347L269.809 193.759V191.058Z" fill="#455A64"/>
<path d="M269.809 216.212V204.493L279.204 199.092V210.812L269.809 216.212Z" fill="#E0E0E0"/>
<path d="M279.204 210.812L276.855 209.456V200.437L279.204 199.092V210.812Z" fill="#211C1C"/>
<path d="M269.809 213.512L276.855 209.456L279.204 210.812L269.809 216.212V213.512Z" fill="#455A64"/>
<path d="M269.809 171.775V160.056L279.204 154.655V166.375L269.809 171.775Z" fill="#E0E0E0"/>
<path d="M279.204 166.375L276.855 165.019V156L279.204 154.655V166.375Z" fill="#211C1C"/>
<path d="M269.809 169.075L276.855 165.019L279.204 166.375L269.809 171.775V169.075Z" fill="#455A64"/>
<path d="M269.809 149.793V138.073L279.204 132.672V144.392L269.809 149.793Z" fill="#E0E0E0"/>
<path d="M279.204 144.392L276.855 143.036V134.017L279.204 132.672V144.392Z" fill="#211C1C"/>
<path d="M269.809 147.092L276.855 143.036L279.204 144.392L269.809 149.792V147.092Z" fill="#455A64"/>
<path d="M269.809 127.82V116.089L279.204 110.689V122.409L269.809 127.82Z" fill="#E0E0E0"/>
<path d="M279.204 122.409L276.855 121.053V112.044L279.204 110.689V122.409Z" fill="#211C1C"/>
<path d="M269.809 125.109L276.855 121.053L279.204 122.408L269.809 127.82V125.109Z" fill="#455A64"/>
<path d="M303.714 174.252V162.532L313.098 157.12V168.84L303.714 174.252Z" fill="#E0E0E0"/>
<path d="M313.098 168.84L310.761 167.495V158.476L313.098 157.12V168.84Z" fill="#211C1C"/>
<path d="M303.714 171.551L310.761 167.495L313.098 168.84L303.714 174.252V171.551Z" fill="#455A64"/>
<path d="M303.714 196.705V184.986L313.098 179.585V191.294L303.714 196.705Z" fill="#E0E0E0"/>
<path d="M313.098 191.294L310.761 189.949V180.929L313.098 179.585V191.294Z" fill="#211C1C"/>
<path d="M303.714 194.005L310.761 189.949L313.098 191.294L303.714 196.705V194.005Z" fill="#455A64"/>
<path d="M303.714 152.078V140.358L313.098 134.958V146.677L303.714 152.078Z" fill="#E0E0E0"/>
<path d="M313.098 146.677L310.761 145.322V136.302L313.098 134.958V146.677Z" fill="#211C1C"/>
<path d="M303.714 149.378L310.761 145.322L313.098 146.678L303.714 152.078V149.378Z" fill="#455A64"/>
<path d="M303.714 129.916V118.196L313.098 112.784V124.504L303.714 129.916Z" fill="#E0E0E0"/>
<path d="M313.098 124.504L310.761 123.16V114.14L313.098 112.784V124.504Z" fill="#211C1C"/>
<path d="M303.714 127.215L310.761 123.159L313.098 124.504L303.714 129.916V127.215Z" fill="#455A64"/>
<path d="M303.714 107.742V96.022L313.098 90.6215V102.341L303.714 107.742Z" fill="#FAFAFA"/>
<path d="M313.098 102.341L310.761 100.986V91.966L313.098 90.6215V102.341Z" fill="#211C1C"/>
<path d="M303.714 105.042L310.761 100.986L313.098 102.341L303.714 107.742V105.042Z" fill="#455A64"/>
<path d="M298.354 98.5208L292.869 101.669V180.493L298.354 177.355V98.5208Z" fill="#FAFAFA"/>
<path d="M298.354 98.5208L296.028 99.8541V176.056L298.354 177.355V98.5208Z" fill="#211C1C"/>
<path d="M296.027 176.056L292.869 177.804V180.493L298.354 177.355L296.027 176.056Z" fill="#455A64"/>
<path d="M289.633 103.484L284.16 106.622V185.456L289.633 182.308V103.484Z" fill="#FAFAFA"/>
<path d="M289.633 103.484L287.318 104.818V181.008L289.633 182.308V103.484Z" fill="#211C1C"/>
<path d="M287.318 181.008L284.16 182.756V185.456L289.633 182.308L287.318 181.008Z" fill="#455A64"/>
<path d="M258.267 193.759V182.039L248.872 176.627V188.347L258.267 193.759Z" fill="#E0E0E0"/>
<path d="M248.872 188.347L251.22 187.003V177.983L248.872 176.627V188.347Z" fill="#37474F"/>
<path d="M258.267 191.058L251.22 187.002L248.872 188.347L258.267 193.759V191.058Z" fill="#211C1C"/>
<path d="M243.657 185.389V173.669L234.273 168.268V179.988L243.657 185.389Z" fill="#E0E0E0"/>
<path d="M234.273 179.988L236.611 178.632V169.613L234.273 168.268V179.988Z" fill="#37474F"/>
<path d="M243.657 182.689L236.611 178.633L234.273 179.988L243.657 185.389V182.689Z" fill="#211C1C"/>
<path d="M229.058 177.03V165.31L219.663 159.899V171.619L229.058 177.03Z" fill="#E0E0E0"/>
<path d="M219.663 171.619L222.012 170.274V161.254L219.663 159.899V171.619Z" fill="#37474F"/>
<path d="M229.058 174.319L222.012 170.274L219.663 171.619L229.058 177.03V174.319Z" fill="#211C1C"/>
<path d="M258.267 216.212V204.493L248.872 199.092V210.812L258.267 216.212Z" fill="#E0E0E0"/>
<path d="M248.872 210.812L251.22 209.456V200.437L248.872 199.092V210.812Z" fill="#37474F"/>
<path d="M258.267 213.512L251.22 209.456L248.872 210.812L258.267 216.212V213.512Z" fill="#211C1C"/>
<path d="M243.657 207.854V196.123L234.273 190.722V202.442L243.657 207.854Z" fill="#E0E0E0"/>
<path d="M234.273 202.442L236.611 201.087V192.078L234.273 190.722V202.442Z" fill="#37474F"/>
<path d="M243.657 205.142L236.611 201.086L234.273 202.442L243.657 207.854V205.142Z" fill="#211C1C"/>
<path d="M229.058 199.484V187.764L219.663 182.353V194.072L229.058 199.484Z" fill="#E0E0E0"/>
<path d="M219.663 194.072L222.012 192.728V183.708L219.663 182.353V194.072Z" fill="#37474F"/>
<path d="M229.058 196.784L222.012 192.728L219.663 194.072L229.058 199.484V196.784Z" fill="#211C1C"/>
<path d="M258.267 171.775V160.056L248.872 154.655V166.375L258.267 171.775Z" fill="#E0E0E0"/>
<path d="M248.872 166.375L251.22 165.019V156L248.872 154.655V166.375Z" fill="#37474F"/>
<path d="M258.267 169.075L251.22 165.019L248.872 166.375L258.267 171.775V169.075Z" fill="#211C1C"/>
<path d="M243.657 163.316V151.596L234.273 146.196V157.916L243.657 163.316Z" fill="#E0E0E0"/>
<path d="M234.273 157.916L236.611 156.56V147.54L234.273 146.196V157.916Z" fill="#37474F"/>
<path d="M243.657 160.616L236.611 156.56L234.273 157.916L243.657 163.316V160.616Z" fill="#211C1C"/>
<path d="M229.058 154.857V143.137L219.663 137.736V149.456L229.058 154.857Z" fill="#E0E0E0"/>
<path d="M219.663 149.456L222.012 148.1V139.081L219.663 137.736V149.456Z" fill="#37474F"/>
<path d="M229.058 152.157L222.012 148.101L219.663 149.456L229.058 154.857V152.157Z" fill="#211C1C"/>
<path d="M258.267 149.793V138.073L248.872 132.672V144.392L258.267 149.793Z" fill="#E0E0E0"/>
<path d="M248.872 144.392L251.22 143.036V134.017L248.872 132.672V144.392Z" fill="#37474F"/>
<path d="M258.267 147.092L251.22 143.036L248.872 144.392L258.267 149.792V147.092Z" fill="#211C1C"/>
<path d="M243.657 141.243V129.524L234.273 124.112V135.843L243.657 141.243Z" fill="#E0E0E0"/>
<path d="M234.273 135.843L236.611 134.487V125.468L234.273 124.112V135.843Z" fill="#37474F"/>
<path d="M243.657 138.543L236.611 134.487L234.273 135.843L243.657 141.243V138.543Z" fill="#211C1C"/>
<path d="M229.058 132.694V120.974L219.663 115.563V127.283L229.058 132.694Z" fill="#E0E0E0"/>
<path d="M219.663 127.283L222.012 125.938V116.918L219.663 115.563V127.283Z" fill="#37474F"/>
<path d="M229.058 129.994L222.012 125.938L219.663 127.283L229.058 132.694V129.994Z" fill="#211C1C"/>
<path d="M258.267 127.82V116.089L248.872 110.689V122.409L258.267 127.82Z" fill="#E0E0E0"/>
<path d="M248.872 122.409L251.22 121.053V112.044L248.872 110.689V122.409Z" fill="#37474F"/>
<path d="M258.267 125.109L251.22 121.053L248.872 122.408L258.267 127.82V125.109Z" fill="#211C1C"/>
<path d="M243.657 119.171V107.451L234.273 102.039V113.759L243.657 119.171Z" fill="#E0E0E0"/>
<path d="M234.273 113.759L236.611 112.414V103.395L234.273 102.039V113.759Z" fill="#37474F"/>
<path d="M243.657 116.47L236.611 112.414L234.273 113.759L243.657 119.171V116.47Z" fill="#211C1C"/>
<path d="M229.058 110.521V98.8008L219.663 93.4003V105.12L229.058 110.521Z" fill="#E0E0E0"/>
<path d="M219.663 105.12L222.012 103.764V94.7448L219.663 93.4003V105.12Z" fill="#37474F"/>
<path d="M229.058 107.82L222.012 103.764L219.663 105.12L229.058 110.521V107.82Z" fill="#211C1C"/>
<path d="M309.727 73.5796L268.64 49.927L222.99 76.2014L264.077 99.8541L309.727 73.5796Z" fill="#F0F0F0"/>
<path d="M268.64 49.927V55.1819L227.553 78.8345L222.99 76.2014L268.64 49.927Z" fill="#211C1C"/>
<path d="M268.64 49.927L309.727 73.5796L305.153 76.2014L268.64 55.1819V49.927Z" fill="#455A64"/>
<path d="M189.59 344.033C183.877 346.374 177.468 346.374 171.755 344.033C166.833 341.691 166.833 337.904 171.755 335.562C177.468 333.221 183.877 333.221 189.59 335.562C194.524 337.904 194.524 341.691 189.59 344.033Z" fill="#E0E0E0"/>
<path d="M5.13646 336.313C10.8533 338.655 17.266 338.655 22.9828 336.313C27.9052 333.971 27.9052 330.184 22.9828 327.843C17.266 325.5 10.8533 325.5 5.13646 327.843C0.236578 330.184 0.236578 333.971 5.13646 336.313Z" fill="#E0E0E0"/>
<path d="M109.439 334.946L218.697 272.055C219.431 271.667 220.044 271.087 220.472 270.378C220.9 269.668 221.127 268.855 221.127 268.027C221.127 267.199 220.9 266.387 220.472 265.677C220.044 264.968 219.431 264.388 218.697 263.999L109.427 201.109C108.673 200.728 107.84 200.529 106.994 200.529C106.149 200.529 105.315 200.728 104.561 201.109L-4.69699 263.955C-5.43062 264.343 -6.04437 264.923 -6.4724 265.632C-6.90043 266.342 -7.12659 267.155 -7.12659 267.983C-7.12659 268.811 -6.90043 269.623 -6.4724 270.333C-6.04437 271.042 -5.43062 271.622 -4.69699 272.011L104.573 334.901C105.323 335.289 106.155 335.495 107 335.503C107.846 335.511 108.681 335.32 109.439 334.946Z" fill="#FFF2C1"/>
<path d="M109.439 334.946L218.697 272.055C219.431 271.667 220.044 271.087 220.472 270.378C220.9 269.668 221.127 268.855 221.127 268.027C221.127 267.199 220.9 266.387 220.472 265.677C220.044 264.968 219.431 264.388 218.697 263.999L109.427 201.109C108.673 200.728 107.84 200.529 106.994 200.529C106.149 200.529 105.315 200.728 104.561 201.109L-4.69699 263.955C-5.43062 264.343 -6.04437 264.923 -6.4724 265.632C-6.90043 266.342 -7.12659 267.155 -7.12659 267.983C-7.12659 268.811 -6.90043 269.623 -6.4724 270.333C-6.04437 271.042 -5.43062 271.622 -4.69699 272.011L104.573 334.901C105.323 335.289 106.155 335.495 107 335.503C107.846 335.511 108.681 335.32 109.439 334.946Z" fill="#FFF2C1"/>
<path d="M109.439 334.946L218.697 272.055C219.431 271.667 220.044 271.087 220.472 270.378C220.9 269.668 221.127 268.855 221.127 268.027C221.127 267.199 220.9 266.387 220.472 265.677C220.044 264.968 219.431 264.388 218.697 263.999L109.427 201.109C108.673 200.728 107.84 200.529 106.994 200.529C106.149 200.529 105.315 200.728 104.561 201.109L-4.69699 263.955C-5.43062 264.343 -6.04437 264.923 -6.4724 265.632C-6.90043 266.342 -7.12659 267.155 -7.12659 267.983C-7.12659 268.811 -6.90043 269.623 -6.4724 270.333C-6.04437 271.042 -5.43062 271.622 -4.69699 272.011L104.573 334.901C105.323 335.289 106.155 335.495 107 335.503C107.846 335.511 108.681 335.32 109.439 334.946Z" fill="#FFF2C1"/>
<path opacity="0.2" d="M109.439 334.946L218.697 272.055C219.431 271.667 220.044 271.087 220.472 270.378C220.9 269.668 221.127 268.855 221.127 268.027C221.127 267.199 220.9 266.387 220.472 265.677C220.044 264.968 219.431 264.388 218.697 263.999L109.427 201.109C108.673 200.728 107.84 200.529 106.994 200.529C106.149 200.529 105.315 200.728 104.561 201.109L-4.69699 263.955C-5.43062 264.343 -6.04437 264.923 -6.4724 265.632C-6.90043 266.342 -7.12659 267.155 -7.12659 267.983C-7.12659 268.811 -6.90043 269.623 -6.4724 270.333C-6.04437 271.042 -5.43062 271.622 -4.69699 272.011L104.573 334.901C105.323 335.289 106.155 335.495 107 335.503C107.846 335.511 108.681 335.32 109.439 334.946Z" fill="black"/>
<path d="M-4.69697 266.801L104.573 329.691C105.327 330.072 106.16 330.271 107.006 330.271C107.851 330.271 108.685 330.072 109.439 329.691L218.697 266.801C218.991 266.701 219.246 266.513 219.426 266.262C219.607 266.01 219.704 265.709 219.704 265.4C219.704 265.091 219.607 264.79 219.426 264.538C219.246 264.287 218.991 264.099 218.697 263.999L109.428 201.109C108.673 200.728 107.84 200.529 106.994 200.529C106.149 200.529 105.315 200.728 104.561 201.109L-4.69697 263.955C-5.00766 264.042 -5.28113 264.229 -5.47587 264.486C-5.67062 264.742 -5.776 265.056 -5.776 265.378C-5.776 265.699 -5.67062 266.013 -5.47587 266.269C-5.28113 266.526 -5.00766 266.713 -4.69697 266.801Z" fill="#FFF2C1"/>
<path d="M125.262 307.439L202.862 262.767V76.2014L125.262 120.874V307.439Z" fill="#37474F"/>
<path d="M107 320.582V131.383L11.1379 76.2014V265.4L107 320.582Z" fill="#455A64"/>
<path d="M107 241.747L11.1378 186.565V181.311L2.0011 186.565L107 247.002V241.747Z" fill="#FFF2C1"/>
<path opacity="0.5" d="M107 241.747L11.1378 186.565V181.311L2.0011 186.565L107 247.002V241.747Z" fill="white"/>
<path d="M2.0011 186.565L107 247.002V252.257L2.0011 191.82V186.565Z" fill="#FFF2C1"/>
<path d="M107 241.747L125.262 231.238L129.825 233.871L107 247.002V241.747Z" fill="#FFF2C1"/>
<path opacity="0.5" d="M107 241.747L125.262 231.238L129.825 233.871L107 247.002V241.747Z" fill="white"/>
<path d="M107 252.257L129.825 239.125V233.87L107 247.002V252.257Z" fill="#FFF2C1"/>
<path opacity="0.2" d="M107 252.257L129.825 239.125V233.87L107 247.002V252.257Z" fill="black"/>
<path d="M107 131.383L125.262 120.874V231.237L107 241.747V131.383Z" fill="#211C1C"/>
<path d="M107 252.257L125.262 241.747V310.072L107 320.582V252.257Z" fill="#211C1C"/>
<path d="M97.8746 225.983V199.708L79.6124 189.198V215.473L97.8746 225.983Z" fill="#FFF2C1"/>
<path opacity="0.5" d="M97.8746 225.983V199.708L79.6124 189.198V215.473L97.8746 225.983Z" fill="white"/>
<path d="M79.6124 215.473L84.1752 212.851V191.82L79.6124 189.198V215.473Z" fill="#211C1C"/>
<path d="M97.8746 220.728L84.1752 212.851L79.6124 215.473L97.8746 225.983V220.728Z" fill="#211C1C"/>
<path d="M70.4758 210.218V183.943L47.6509 170.801V197.075L70.4758 210.218Z" fill="#FFF2C1"/>
<path opacity="0.5" d="M70.4758 210.218V183.943L47.6509 170.801V197.075L70.4758 210.218Z" fill="white"/>
<path d="M52.2136 194.453L52.2248 173.434L47.6509 170.801V197.075L52.2136 194.453Z" fill="#211C1C"/>
<path d="M70.4758 204.963V210.218L47.6509 197.075L52.2136 194.453L70.4758 204.963Z" fill="#211C1C"/>
<path d="M136.669 282.475V256.201L159.494 243.069V269.344L136.669 282.475Z" fill="#FFF2C1"/>
<path d="M154.931 266.711V245.691L159.494 243.069V269.344L154.931 266.711Z" fill="#211C1C"/>
<path d="M136.669 277.22V282.475L159.494 269.344L154.931 266.711L136.669 277.22Z" fill="#211C1C"/>
<path d="M136.669 238.688V212.414L159.494 199.271V225.545L136.669 238.688Z" fill="#FFF2C1"/>
<path d="M154.931 222.924V201.893L159.494 199.271V225.545L154.931 222.924Z" fill="#211C1C"/>
<path d="M136.669 233.434V238.689L159.494 225.546L154.931 222.924L136.669 233.434Z" fill="#211C1C"/>
<path d="M136.669 194.89V168.616L159.494 155.473V181.747L136.669 194.89Z" fill="#FFF2C1"/>
<path d="M154.931 179.126V158.106L159.494 155.473V181.747L154.931 179.126Z" fill="#211C1C"/>
<path d="M136.669 189.635V194.89L159.494 181.747L154.931 179.125L136.669 189.635Z" fill="#211C1C"/>
<path d="M136.669 151.092V124.818L159.494 111.675V137.96L136.669 151.092Z" fill="#FFF2C1"/>
<path d="M154.931 135.327V114.308L159.494 111.675V137.96L154.931 135.327Z" fill="#211C1C"/>
<path d="M136.669 145.837V151.092L159.494 137.96L154.931 135.327L136.669 145.837Z" fill="#211C1C"/>
<path d="M169.125 263.798V237.523L191.961 224.392L191.95 250.666L169.125 263.798Z" fill="#FFF2C1"/>
<path d="M187.387 248.033V227.013L191.961 224.392L191.95 250.666L187.387 248.033Z" fill="#211C1C"/>
<path d="M169.125 258.554V263.798L191.95 250.666L187.387 248.033L169.125 258.554Z" fill="#211C1C"/>
<path d="M169.125 220.011V193.725L191.961 180.593L191.95 206.868L169.125 220.011Z" fill="#FFF2C1"/>
<path d="M187.387 204.246V183.215L191.961 180.593L191.95 206.868L187.387 204.246Z" fill="#211C1C"/>
<path d="M169.125 214.756V220.011L191.95 206.868L187.387 204.246L169.125 214.756Z" fill="#211C1C"/>
<path d="M169.125 176.212V149.938L191.961 136.795L191.95 163.081L169.125 176.212Z" fill="#FFF2C1"/>
<path d="M187.387 160.448V139.428L191.961 136.795L191.95 163.081L187.387 160.448Z" fill="#211C1C"/>
<path d="M169.125 170.958V176.212L191.95 163.081L187.387 160.448L169.125 170.958Z" fill="#211C1C"/>
<path d="M169.125 132.414V106.14L191.961 93.0082L191.95 119.283L169.125 132.414Z" fill="#FFF2C1"/>
<path d="M187.387 116.65V95.63L191.961 93.0082L191.95 119.283L187.387 116.65Z" fill="#211C1C"/>
<path d="M169.125 127.159V132.414L191.95 119.283L187.387 116.65L169.125 127.159Z" fill="#211C1C"/>
<path d="M38.5253 191.82V165.546L20.2632 155.036V181.311L38.5253 191.82Z" fill="#FFF2C1"/>
<path opacity="0.5" d="M38.5253 191.82V165.546L20.2632 155.036V181.311L38.5253 191.82Z" fill="white"/>
<path d="M24.8259 178.689L20.2632 181.311V155.036L24.8259 157.669V178.689Z" fill="#211C1C"/>
<path d="M38.5253 186.565L24.8259 178.689L20.2632 181.311L38.5253 191.82V186.565Z" fill="#211C1C"/>
<path d="M47.6509 242.005C47.6509 234.588 52.7643 231.506 59.0689 235.137C65.3736 238.767 70.4758 247.719 70.4758 255.148V299.562L47.6509 286.419V242.005Z" fill="#211C1C"/>
<path d="M70.4756 255.148C70.4756 247.719 65.3734 238.756 59.0688 235.137C57.4636 234.123 55.5969 233.597 53.6969 233.624C52.654 235.36 52.1423 237.361 52.2247 239.383V283.798L70.4756 294.307V255.148Z" fill="#455A64"/>
<path d="M70.4756 255.148C70.4756 247.719 65.3734 238.756 59.0688 235.137C57.4636 234.123 55.5969 233.597 53.6969 233.624C52.654 235.36 52.1423 237.361 52.2247 239.383V283.798L70.4756 294.307V255.148Z" fill="#FFF2C1"/>
<path opacity="0.5" d="M70.4756 255.148C70.4756 247.719 65.3734 238.756 59.0688 235.137C57.4636 234.123 55.5969 233.597 53.6969 233.624C52.654 235.36 52.1423 237.361 52.2247 239.383V283.798L70.4756 294.307V255.148Z" fill="white"/>
<path d="M62.3616 237.613C61.6608 236.954 60.9093 236.351 60.114 235.809V247.618L52.2472 243.069V245.792L60.114 250.352V284.403L62.3616 285.691V251.63L70.4756 256.302V255.181C70.4756 254.644 70.4756 254.061 70.397 253.557L62.3616 248.94V237.613Z" fill="#455A64"/>
<path d="M107 131.383V115.619L6.56372 57.8149V73.5796L107 131.383Z" fill="#FFF2C1"/>
<path opacity="0.5" d="M107 131.383V115.619L6.56372 57.8149V73.5796L107 131.383Z" fill="white"/>
<path d="M107 131.383V115.619L207.437 57.8149V73.5796L107 131.383Z" fill="#FFF2C1"/>
<path opacity="0.2" d="M107 131.383V115.619L207.437 57.8149V73.5796L107 131.383Z" fill="black"/>
<path d="M20.2632 103.171C20.2632 96.9857 24.3539 94.319 29.3886 97.221C34.4234 100.123 38.5253 107.495 38.5253 113.68V155.036L20.2632 144.526V103.171Z" fill="#211C1C"/>
<path d="M29.3886 97.2097C28.3025 96.5607 27.078 96.1768 25.8148 96.0892C25.1198 97.4791 24.78 99.0187 24.8259 100.571V141.927L38.5253 149.77V113.669C38.5253 107.484 34.4346 100.112 29.3886 97.2097Z" fill="#FFF2C1"/>
<path opacity="0.5" d="M29.3886 97.2097C28.3025 96.5607 27.078 96.1768 25.8148 96.0892C25.1198 97.4791 24.78 99.0187 24.8259 100.571V141.927L38.5253 149.77V113.669C38.5253 107.484 34.4346 100.112 29.3886 97.2097Z" fill="white"/>
<path d="M20.2632 144.526L24.8259 141.893L38.5253 149.77V155.036L20.2632 144.526Z" fill="#211C1C"/>
<path d="M47.6509 121.176C47.6509 113.748 52.7643 110.678 59.0689 114.308C65.3736 117.938 70.4758 126.89 70.4758 134.319V173.434L47.6509 160.291V121.176Z" fill="#211C1C"/>
<path d="M70.4756 134.319C70.4756 126.89 65.3734 117.927 59.0688 114.308C57.4636 113.294 55.5969 112.768 53.6969 112.795C52.654 114.531 52.1423 116.533 52.2247 118.554V157.658L70.4756 168.179V134.319Z" fill="#FFF2C1"/>
<path opacity="0.5" d="M70.4756 134.319C70.4756 126.89 65.3734 117.927 59.0688 114.308C57.4636 113.294 55.5969 112.768 53.6969 112.795C52.654 114.531 52.1423 116.533 52.2247 118.554V157.658L70.4756 168.179V134.319Z" fill="white"/>
<path d="M52.2248 157.658L47.6509 160.291L70.4758 173.434V168.179L52.2248 157.658Z" fill="#211C1C"/>
<path d="M79.6124 137.344C79.6124 131.159 83.6919 128.493 88.7379 131.395C93.7839 134.297 97.8746 141.669 97.8746 147.854V189.21L79.6124 178.7V137.344Z" fill="#211C1C"/>
<path d="M88.7378 131.383C87.651 130.736 86.4269 130.352 85.164 130.263C84.4672 131.652 84.1274 133.192 84.1751 134.745V176.1L97.8745 183.943V147.843C97.8745 141.658 93.7838 134.285 88.7378 131.383Z" fill="#FFF2C1"/>
<path opacity="0.5" d="M88.7378 131.383C87.651 130.736 86.4269 130.352 85.164 130.263C84.4672 131.652 84.1274 133.192 84.1751 134.745V176.1L97.8745 183.943V147.843C97.8745 141.658 93.7838 134.285 88.7378 131.383Z" fill="white"/>
<path d="M84.1752 176.056L79.6124 178.689L97.8746 189.198V183.944L84.1752 176.056Z" fill="#211C1C"/>
<path d="M79.6124 258.162C79.6124 251.977 83.6919 249.31 88.7379 252.212C93.7839 255.114 97.8746 262.487 97.8746 268.672V315.327L79.6124 304.817V258.162Z" fill="#211C1C"/>
<path d="M88.7378 252.212C87.6511 251.565 86.4269 251.181 85.1641 251.092C84.469 252.482 84.1293 254.021 84.1751 255.574V302.218L97.8745 310.061V268.604C97.8745 262.487 93.7838 255.114 88.7378 252.212Z" fill="#FFF2C1"/>
<path opacity="0.5" d="M88.7378 252.212C87.6511 251.565 86.4269 251.181 85.1641 251.092C84.469 252.482 84.1293 254.021 84.1751 255.574V302.218L97.8745 310.061V268.604C97.8745 262.487 93.7838 255.114 88.7378 252.212Z" fill="white"/>
<path d="M79.6124 304.817V289.052L97.8746 299.562V315.327L79.6124 304.817Z" fill="#37474F"/>
<path d="M79.6124 289.052L84.1752 286.419L97.8633 294.307L97.8746 299.562L79.6124 289.052Z" fill="#211C1C"/>
<path d="M20.2632 223.999C20.2632 217.815 24.3539 215.148 29.3886 218.05C34.4234 220.952 38.5253 228.324 38.5253 234.509V281.165L20.2632 270.677V223.999Z" fill="#211C1C"/>
<path d="M29.3886 218.016C28.3003 217.372 27.077 216.989 25.8148 216.896C25.1198 218.286 24.78 219.825 24.8259 221.378V268.033L38.5253 275.876V234.42C38.5253 228.313 34.4346 220.941 29.3886 218.016Z" fill="#FFF2C1"/>
<path opacity="0.5" d="M29.3886 218.016C28.3003 217.372 27.077 216.989 25.8148 216.896C25.1198 218.286 24.78 219.825 24.8259 221.378V268.033L38.5253 275.876V234.42C38.5253 228.313 34.4346 220.941 29.3886 218.016Z" fill="white"/>
<path d="M38.5253 281.164V265.4L20.2632 254.89V270.655L38.5253 281.164Z" fill="#37474F"/>
<path d="M20.2632 254.89L24.8259 252.257L38.5253 260.145V265.4L20.2632 254.89Z" fill="#211C1C"/>
<path d="M47.6509 286.419V281.165L70.4758 294.307V299.562L47.6509 286.419Z" fill="#37474F"/>
<path d="M47.6509 281.164L52.2248 278.542L70.4758 289.052V294.307L47.6509 281.164Z" fill="#211C1C"/>
<path d="M107 115.619L207.436 57.815L107 0L6.56372 57.815L107 115.619Z" fill="#FFF2C1"/>
<path opacity="0.7" d="M107 115.619L207.436 57.815L107 0L6.56372 57.815L107 115.619Z" fill="white"/>
<path d="M107 105.109L189.174 57.815L107 10.5098L24.8259 57.815L107 105.109Z" fill="#FFF2C1"/>
<path d="M107 10.5098V26.2856L38.5254 65.6917L24.8259 57.815L107 10.5098Z" fill="#FFF2C1"/>
<path opacity="0.2" d="M107 10.5098V26.2856L38.5254 65.6917L24.8259 57.815L107 10.5098Z" fill="black"/>
<path d="M107 10.5098L189.174 57.815L175.475 65.6917L107 26.2856V10.5098Z" fill="#FFF2C1"/>
<path opacity="0.5" d="M107 10.5098L189.174 57.815L175.475 65.6917L107 26.2856V10.5098Z" fill="white"/>
<path d="M93.3007 23.6526L70.4758 36.7954L102.437 55.1819L125.262 42.0503L93.3007 23.6526Z" fill="#455A64"/>
<path d="M70.4758 36.7953V52.56L102.437 70.9465V55.1818L70.4758 36.7953Z" fill="#37474F"/>
<path d="M125.262 42.0504V57.8151L102.438 70.9467V55.182L125.262 42.0504Z" fill="#211C1C"/>
<path d="M85.8048 32.4704C81.6579 34.857 81.6579 38.7225 85.8048 41.109C88.1291 42.2861 90.6993 42.8995 93.3063 42.8995C95.9133 42.8995 98.4835 42.2861 100.808 41.109C104.944 38.7225 104.944 34.857 100.808 32.4704C98.4835 31.2934 95.9133 30.6799 93.3063 30.6799C90.6993 30.6799 88.1291 31.2934 85.8048 32.4704Z" fill="#37474F"/>
<path d="M89.7945 34.9354C87.8502 35.955 87.8502 37.6245 89.7945 38.6441C90.8948 39.1535 92.0933 39.4174 93.3064 39.4174C94.5196 39.4174 95.7181 39.1535 96.8184 38.6441C98.7514 37.6245 98.7514 35.955 96.8184 34.9354C95.7181 34.426 94.5196 34.1621 93.3064 34.1621C92.0933 34.1621 90.8948 34.426 89.7945 34.9354Z" fill="#211C1C"/>
<path d="M109.495 56.3695L114.058 58.9914V69.5123" stroke="#455A64" stroke-width="1.5084" stroke-linecap="round" stroke-linejoin="round"/>
<path d="M116.125 52.5599L120.688 55.1818V65.6916" stroke="#455A64" stroke-width="1.5084" stroke-linecap="round" stroke-linejoin="round"/>
<path d="M342.767 147.428V183.63C342.742 183.888 342.649 184.135 342.497 184.345C342.345 184.556 342.14 184.723 341.902 184.828C341.256 185.154 340.542 185.324 339.817 185.324C339.093 185.324 338.379 185.154 337.733 184.828C337.495 184.723 337.29 184.556 337.138 184.345C336.986 184.135 336.892 183.888 336.867 183.63V147.428H342.767Z" fill="#37474F"/>
<path d="M325.64 157.994C325.587 159.884 325.914 161.765 326.603 163.526C327.291 165.288 328.327 166.893 329.649 168.249C330.97 169.604 332.551 170.682 334.298 171.417C336.045 172.153 337.921 172.532 339.817 172.532C341.714 172.532 343.59 172.153 345.337 171.417C347.084 170.682 348.665 169.604 349.986 168.249C351.308 166.893 352.344 165.288 353.032 163.526C353.721 161.765 354.048 159.884 353.995 157.994C353.995 143.54 347.645 127.742 339.823 127.742C332.001 127.742 325.64 143.305 325.64 157.994Z" fill="#FFF2C1"/>
<path d="M264.335 249.949H274.191V239.115C274.191 238.469 274.064 237.83 273.816 237.234C273.568 236.638 273.204 236.096 272.746 235.64C272.287 235.185 271.743 234.823 271.145 234.577C270.546 234.331 269.905 234.206 269.258 234.207C267.952 234.207 266.7 234.724 265.777 235.644C264.854 236.565 264.335 237.813 264.335 239.115V249.949Z" fill="#FFF2C1"/>
<g opacity="0.5">
<path d="M264.335 249.949H274.191V239.115C274.191 238.469 274.064 237.83 273.816 237.234C273.568 236.638 273.204 236.096 272.746 235.64C272.287 235.185 271.743 234.823 271.145 234.577C270.546 234.331 269.905 234.206 269.258 234.207C267.952 234.207 266.7 234.724 265.777 235.644C264.854 236.565 264.335 237.813 264.335 239.115V249.949Z" fill="black"/>
</g>
<path d="M265.65 253.557C266.313 250.263 267.561 246.632 267.493 244.997L266.527 245.053C265.953 245.091 265.409 245.323 264.985 245.709C264.56 246.096 264.28 246.615 264.189 247.181C263.841 249.322 263.313 252.593 263.065 253.904C262.845 255.579 262.468 257.229 261.942 258.834C261.851 259.066 261.679 259.257 261.458 259.372C260.979 259.655 260.547 260.01 260.177 260.425C259.818 260.739 259.537 260.806 259.57 260.918C259.625 261.043 259.725 261.142 259.85 261.196C259.975 261.25 260.116 261.255 260.245 261.209C260.533 261.121 260.808 260.997 261.065 260.84C260.836 261.333 260.524 261.784 260.144 262.173C259.289 263.069 259.211 263.652 260.795 263.786C261.784 263.865 262.616 263.316 263.526 261.209C263.874 260.435 264.167 259.638 264.403 258.823C265.01 256.728 265.392 254.857 265.65 253.557Z" fill="#FFA8A7"/>
<path d="M280.238 281.882C280.608 281.68 280.856 282.162 281.193 282.543C281.485 282.825 281.715 283.164 281.867 283.54C281.855 283.842 281.779 284.138 281.643 284.409C281.508 284.679 281.316 284.918 281.08 285.109C280.518 285.453 280.114 286.004 279.957 286.644C279.914 287.038 279.761 287.412 279.514 287.723C279.268 288.035 278.938 288.27 278.563 288.403C278.127 288.584 277.659 288.678 277.186 288.678C276.714 288.678 276.246 288.584 275.81 288.403C275.282 288.067 275.81 287.686 276.506 286.632C277.473 285.254 278.226 284.268 278.226 282.98L280.238 281.882Z" fill="#211C1C"/>
<path d="M279.462 280.694L280.249 281.815C280.417 282.055 280.484 282.351 280.436 282.64C280.388 282.929 280.228 283.188 279.99 283.361C279.75 283.506 279.466 283.562 279.189 283.519C278.911 283.476 278.658 283.337 278.473 283.125L277.237 281.77L279.462 280.694Z" fill="#FFA8A7"/>
<path d="M264.335 259.652C264.45 262.621 265.011 265.555 265.999 268.358C266.593 269.967 267.346 271.513 268.246 272.974C268.572 273.534 277.866 282.554 277.866 282.554C278.31 282.517 278.73 282.336 279.061 282.039C279.392 281.741 279.616 281.344 279.698 280.907C279.698 280.907 275.888 274.453 275.057 273.131C273.97 271.845 272.711 270.713 271.314 269.77L271.584 258.184L264.335 259.652Z" fill="#37474F"/>
<path d="M267.58 286.699L265.618 286.255L264.968 289.106L266.929 289.551L267.58 286.699Z" fill="#FFA8A7"/>
<path d="M265.999 258.039L274.36 258.364C274.929 259.597 275.173 260.954 275.068 262.307C274.787 266.375 270.921 273.646 270.921 273.646C271.102 275.292 271.018 276.957 270.674 278.576C269.795 281.542 268.76 284.459 267.572 287.316C267.193 287.373 266.805 287.348 266.437 287.241C266.068 287.135 265.727 286.95 265.437 286.7C265.437 286.7 266.696 275.551 267.033 272.694C267.404 269.602 268.348 263.955 268.348 263.955C267.722 263.338 267.157 262.663 266.662 261.938C265.785 260.831 265.335 259.448 265.392 258.039" fill="#37474F"/>
<path d="M277.552 255.843C277.268 252.97 276.803 250.119 276.158 247.305C276.082 246.841 275.854 246.415 275.511 246.093C275.168 245.771 274.728 245.571 274.259 245.523C271.528 246.991 271.55 248.941 273.877 251.294C273.877 251.294 274.843 255.081 275.147 256.896C275.464 258.554 275.615 260.239 275.596 261.927C275.583 262.174 275.474 262.407 275.293 262.576C274.92 262.989 274.609 263.453 274.371 263.955C274.124 264.358 273.866 264.504 273.933 264.604C274.021 264.709 274.145 264.776 274.28 264.793C274.416 264.809 274.553 264.774 274.663 264.694C274.913 264.526 275.139 264.326 275.338 264.1C275.26 264.634 275.097 265.153 274.854 265.635C274.293 266.756 274.382 267.327 275.978 267.002C276.945 266.8 277.585 266.027 277.844 263.742C277.958 262.899 278.011 262.049 278.001 261.198C277.821 259.058 277.687 257.165 277.552 255.843Z" fill="#FFA8A7"/>
<path d="M265.179 288.145L265.235 287.865C265.032 287.865 264.111 289.366 263.268 290.005C262.425 290.644 261.481 291.126 261.02 291.417C260.56 291.708 261.279 292.694 262.684 292.773C263.51 292.82 264.334 292.63 265.055 292.224C265.448 291.854 265.729 291.238 266.044 290.969C266.359 290.7 266.988 290.476 267.168 290.128C267.284 289.79 267.323 289.43 267.28 289.075C267.28 288.705 267.28 288.302 267.134 288.313V288.526C266.761 288.711 266.348 288.8 265.931 288.784C265.628 288.773 265.01 288.694 265.179 288.145Z" fill="#211C1C"/>
<path d="M267.28 270.8C267.28 270.8 268.123 264.873 268.348 263.954C267.676 263.588 267.05 263.144 266.482 262.632C266.872 263.185 267.296 263.713 267.752 264.212L267.28 270.8Z" fill="#211C1C"/>
<path d="M272.326 270.599C271.922 271.643 271.453 272.661 270.921 273.646C270.921 273.646 271.022 275.551 271.011 275.887L271.539 276.347C271.552 275.486 271.473 274.625 271.303 273.781C271.76 272.761 272.103 271.694 272.326 270.599Z" fill="#211C1C"/>
<path d="M271.315 245.042C272.304 245.153 273.286 245.314 274.259 245.523C271.539 247.428 273.877 251.294 273.877 251.294L272.427 255.294C273.401 256.567 274.192 257.97 274.776 259.462C274.012 260.336 269.472 262.98 264.291 259.652C264.291 259.652 264.594 256.739 265.021 254.543C264.279 250.98 264.066 249.725 264.291 248.885C264.898 246.532 266.291 245.03 267.887 244.941L271.315 245.042Z" fill="#F5F5F5"/>
<path d="M265.999 236.19C265.482 236.492 264.875 237.803 264.875 240.537C264.931 242.857 265.684 243.428 266.066 243.596C266.665 243.721 267.286 243.702 267.876 243.54V244.907C267.876 244.907 266.898 246.027 266.965 246.689C267.033 247.35 268.381 247.473 269.292 246.857C269.958 246.341 270.532 245.715 270.989 245.008V241.815C270.989 241.815 271.416 242.218 272.113 241.602C272.397 241.399 272.591 241.093 272.652 240.749C272.713 240.406 272.636 240.052 272.438 239.764C272.32 239.654 272.176 239.573 272.02 239.529C271.864 239.484 271.699 239.478 271.54 239.51C271.381 239.541 271.231 239.611 271.104 239.711C270.977 239.812 270.876 239.942 270.809 240.089C269.88 240.052 268.976 239.782 268.179 239.305C267.596 238.993 267.095 238.548 266.716 238.007C266.337 237.466 266.091 236.843 265.999 236.19Z" fill="#FFA8A7"/>
<path d="M267.493 239.955C267.493 240.032 267.524 240.106 267.579 240.161C267.633 240.215 267.708 240.246 267.785 240.246C267.863 240.246 267.937 240.215 267.992 240.161C268.046 240.106 268.077 240.032 268.077 239.955C268.08 239.915 268.075 239.875 268.063 239.837C268.05 239.799 268.031 239.764 268.004 239.734C267.978 239.704 267.947 239.679 267.911 239.661C267.875 239.643 267.836 239.632 267.796 239.63C267.755 239.63 267.713 239.638 267.675 239.655C267.637 239.671 267.602 239.695 267.574 239.726C267.545 239.757 267.523 239.793 267.509 239.832C267.496 239.871 267.49 239.913 267.493 239.955Z" fill="#211C1C"/>
<path d="M267.414 241.927L266.74 242.139C266.752 242.185 266.773 242.227 266.801 242.265C266.83 242.302 266.866 242.333 266.907 242.356C266.947 242.379 266.993 242.394 267.039 242.399C267.086 242.404 267.133 242.399 267.178 242.386C267.27 242.355 267.346 242.29 267.39 242.204C267.434 242.118 267.443 242.019 267.414 241.927Z" fill="#F28F8F"/>
<path d="M265.1 239.058L265.684 238.655C265.66 238.615 265.628 238.581 265.59 238.554C265.552 238.528 265.509 238.509 265.464 238.5C265.419 238.49 265.372 238.49 265.327 238.499C265.281 238.509 265.238 238.527 265.201 238.554C265.16 238.58 265.126 238.614 265.099 238.654C265.072 238.693 265.053 238.738 265.043 238.785C265.034 238.832 265.034 238.88 265.044 238.927C265.053 238.974 265.072 239.019 265.1 239.058Z" fill="#211C1C"/>
<path d="M265.235 239.742C265.232 239.782 265.236 239.822 265.249 239.859C265.261 239.897 265.281 239.932 265.307 239.963C265.333 239.993 265.365 240.017 265.401 240.035C265.437 240.053 265.476 240.064 265.515 240.067C265.594 240.067 265.669 240.036 265.726 239.982C265.782 239.928 265.816 239.854 265.819 239.775C265.819 239.737 265.811 239.699 265.796 239.664C265.782 239.629 265.76 239.596 265.733 239.569C265.706 239.542 265.674 239.521 265.638 239.506C265.603 239.492 265.565 239.484 265.527 239.484C265.488 239.484 265.45 239.492 265.415 239.506C265.379 239.521 265.347 239.542 265.32 239.569C265.293 239.596 265.272 239.629 265.257 239.664C265.242 239.699 265.235 239.737 265.235 239.775V239.742Z" fill="#211C1C"/>
<path d="M266.616 239.573L266.571 241.333L265.639 241.052L266.616 239.573Z" fill="#F28F8F"/>
<path d="M267.898 243.54C268.651 243.45 270.146 243.002 270.427 242.419C270.331 242.726 270.143 242.997 269.887 243.193C269.264 243.559 268.595 243.841 267.898 244.033V243.54Z" fill="#F28F8F"/>
<path d="M273.202 253.165L271.157 255.932L272.416 255.293L273.202 253.165Z" fill="#E0E0E0"/>
<path d="M175.07 301.209C175.574 298.423 175.717 295.584 175.497 292.761C175.492 292.695 175.465 292.632 175.422 292.582C175.378 292.531 175.319 292.496 175.254 292.481C175.189 292.466 175.121 292.472 175.06 292.498C174.998 292.524 174.947 292.569 174.913 292.627L172.744 296.638C172.744 296.638 172.485 299.574 172.215 301.579C172.018 303.408 171.641 305.213 171.092 306.968C170.995 307.218 170.811 307.425 170.575 307.551C170.053 307.853 169.58 308.231 169.17 308.672C168.788 309.019 168.473 309.086 168.518 309.209C168.576 309.346 168.683 309.456 168.819 309.516C168.955 309.576 169.108 309.583 169.249 309.534C169.561 309.439 169.859 309.303 170.136 309.131C169.89 309.664 169.555 310.153 169.147 310.576C168.215 311.551 168.136 312.179 169.844 312.324C170.912 312.414 171.822 311.82 172.811 309.523C173.19 308.684 173.51 307.819 173.766 306.935C174.429 304.649 174.789 302.61 175.07 301.209Z" fill="#B16668"/>
<path d="M185.218 333.03C185.218 333.03 185.353 333.03 185.769 333.287C186.241 333.581 186.653 333.961 186.983 334.408C187.028 334.733 187.003 335.064 186.91 335.379C186.817 335.694 186.658 335.985 186.443 336.234C186.021 336.868 185.798 337.613 185.803 338.374C185.767 338.865 185.628 339.343 185.396 339.777C185.164 340.211 184.843 340.592 184.454 340.895C183.757 341.377 182.903 341.87 182.51 341.747C182.117 341.624 182.094 341.142 182.589 339.013C183.001 337.61 183.295 336.174 183.465 334.722L185.218 333.03Z" fill="#211C1C"/>
<path d="M184.915 332.626L185.376 333.243C185.448 333.337 185.499 333.446 185.524 333.563C185.55 333.679 185.549 333.799 185.522 333.915C185.453 334.33 185.238 334.708 184.915 334.979C184.731 335.117 184.504 335.184 184.274 335.17C184.116 335.158 183.962 335.113 183.823 335.038C183.683 334.962 183.562 334.859 183.465 334.733L183.106 334.251L184.915 332.626Z" fill="#B16668"/>
<path d="M173.733 306.061L178.925 311.237H178.779L177.587 320.604C178.529 321.24 179.332 322.059 179.947 323.013C180.936 324.537 184.87 332.627 184.87 332.627C184.87 332.627 184.409 334.43 183.06 334.251C183.06 334.251 180.97 331.652 178.722 328.806C176.261 325.68 173.542 322.296 173.395 321.68C172.643 318.318 173.733 306.061 173.733 306.061Z" fill="#455A64"/>
<path d="M180.049 323.013C181.038 324.537 184.971 332.627 184.971 332.627C184.971 332.627 184.51 334.431 183.162 334.251C183.162 334.251 181.071 331.652 178.824 328.806L180.049 323.013Z" fill="#37474F"/>
<path d="M179.633 338.397C179.052 337.829 178.398 337.339 177.689 336.94C177.345 336.917 176.999 336.917 176.655 336.94C176.345 336.94 176.036 336.907 175.733 336.839C175.113 336.615 174.512 336.341 173.935 336.021C173.69 335.873 173.425 335.759 173.149 335.685C172.665 335.596 172.283 335.584 172.115 336.122C172.062 336.285 172.043 336.456 172.058 336.626C172.052 337.125 172.165 337.617 172.388 338.064C172.611 338.51 172.937 338.897 173.34 339.192C173.71 339.439 174.205 339.629 174.598 339.853C175.197 340.1 175.773 340.4 176.318 340.75C177.127 341.444 177.88 342.128 179.015 341.68C179.241 341.616 179.447 341.496 179.614 341.331C179.781 341.167 179.903 340.963 179.97 340.738C180.127 340.145 179.566 339.024 179.633 338.397Z" fill="#211C1C"/>
<path d="M173.789 305.254L184.915 306.375C185.218 309.576 184.94 312.806 184.095 315.91C183.196 319.932 182.195 324.156 182.195 324.156C182.675 325.71 182.71 327.367 182.296 328.94C181.431 331.753 179.824 339.226 179.824 339.226C179.312 338.151 178.414 337.307 177.307 336.862C177.307 336.862 177.711 332.929 177.959 330.083C178.206 327.237 178.352 324.862 178.442 323.103C178.588 320.302 178.992 311.193 178.992 311.193H178.846C178.846 311.193 174.475 309.131 173.755 306.016L173.789 305.254Z" fill="#455A64"/>
<path d="M178.925 311.237C177.668 310.656 176.499 309.901 175.452 308.996L178.161 311.517L177.666 319.954L178.925 311.237Z" fill="#37474F"/>
<path d="M177.869 291.529C176.217 291.529 174.239 292.055 173.452 293.568C172.75 295.489 172.279 297.486 172.047 299.517C172.047 299.517 172.665 300.851 174.98 300.694L177.869 291.529Z" fill="#211C1C"/>
<path d="M188.601 303.685C188.14 298.946 186.421 295.484 186.218 294.296L184.825 300.156C185.287 301.703 185.662 303.274 185.949 304.862C186.29 306.668 186.456 308.503 186.443 310.341C186.422 310.607 186.307 310.858 186.117 311.047C185.705 311.488 185.364 311.991 185.106 312.537C184.836 312.985 184.555 313.131 184.634 313.243C184.728 313.355 184.862 313.428 185.007 313.447C185.153 313.465 185.301 313.429 185.42 313.344C185.693 313.161 185.942 312.947 186.162 312.705C186.086 313.284 185.919 313.847 185.668 314.375C185.061 315.573 185.162 316.212 186.792 315.854C187.848 315.629 188.545 314.8 188.826 312.313C188.944 311.399 189 310.478 188.994 309.557C188.927 307.17 188.736 305.108 188.601 303.685Z" fill="#B16668"/>
<path d="M181.251 291.629C183.207 292.1 185.881 292.75 186.657 294.834C187.3 296.851 187.837 298.9 188.264 300.974C187.837 301.386 187.317 301.689 186.748 301.859C186.179 302.028 185.577 302.059 184.993 301.949L184.544 300.369L184.915 306.408C183.386 308.078 177.048 308.503 173.733 306.061C173.733 306.061 174.306 297.097 174.306 295.428C174.274 294.936 174.342 294.444 174.505 293.979C174.668 293.515 174.924 293.088 175.256 292.724C175.589 292.36 175.991 292.066 176.44 291.861C176.889 291.656 177.375 291.543 177.868 291.529L181.251 291.629Z" fill="#37474F"/>
<path d="M184.544 300.369L183.555 297.276L184.634 301.904L184.544 300.369Z" fill="#211C1C"/>
<path d="M181.982 282.935C182.158 282.916 182.336 282.936 182.503 282.994C182.67 283.052 182.822 283.147 182.948 283.271C183.364 283.697 183.274 284.481 182.948 286.274L181.667 286.419L181.982 282.935Z" fill="#211C1C"/>
<path d="M174.52 282.42C174.241 282.42 173.966 282.363 173.71 282.251C173.317 282.027 173.216 282.476 173.43 282.856C173.572 283.135 173.785 283.373 174.047 283.546C174.309 283.718 174.611 283.821 174.924 283.842L175.284 282.845L174.52 282.42Z" fill="#211C1C"/>
<path d="M181.386 286.419C181.577 286.531 181.847 286.173 182.083 285.926C182.174 285.82 182.292 285.739 182.424 285.691C182.556 285.643 182.698 285.629 182.837 285.652C182.976 285.674 183.106 285.732 183.216 285.819C183.326 285.907 183.412 286.021 183.465 286.151C183.847 286.968 182.959 288.055 182.442 288.391C182.299 288.516 182.119 288.592 181.929 288.608C181.739 288.624 181.549 288.58 181.386 288.481L181.251 291.607C181.019 292.107 180.666 292.542 180.225 292.874C179.784 293.206 179.268 293.425 178.723 293.512C176.879 293.77 177.262 292.257 177.868 291.506V290.386C177.411 290.485 176.94 290.507 176.475 290.453C175.941 290.068 175.528 289.539 175.284 288.929C174.497 287.38 174.325 285.592 174.8 283.921C175.452 281.12 178.475 281.03 180.273 282.162C182.072 283.293 181.386 286.419 181.386 286.419Z" fill="#B16668"/>
<path d="M181.386 286.744C181.476 286.744 181.836 286.139 182.083 285.926C182.33 285.714 181.982 282.935 181.982 282.935C182.074 282.647 182.093 282.341 182.038 282.044C181.983 281.747 181.856 281.468 181.667 281.232C181.015 280.56 179.768 280.672 178.846 280.638C177.719 280.646 176.603 280.425 175.565 279.988C174.261 279.417 174.16 279.349 174.002 279.921C173.875 280.391 173.858 280.885 173.954 281.363C174.049 281.842 174.254 282.291 174.553 282.677L174.98 283.372C175.468 283.661 176.02 283.823 176.587 283.842C177.791 283.834 178.987 283.653 180.139 283.305C180.487 283.305 180.566 283.596 180.757 284.537C180.948 285.478 181.06 286.733 181.386 286.744Z" fill="#211C1C"/>
<path d="M181.982 283.148L183.106 282.532C183.07 282.454 183.018 282.385 182.955 282.328C182.891 282.271 182.817 282.228 182.736 282.2C182.655 282.173 182.569 282.163 182.484 282.17C182.399 282.176 182.316 282.2 182.24 282.24C182.088 282.329 181.977 282.473 181.929 282.642C181.881 282.811 181.9 282.992 181.982 283.148Z" fill="#211C1C"/>
<path d="M177.868 290.397C178.655 290.246 179.426 290.024 180.172 289.736C180.521 289.556 180.807 289.274 180.993 288.929C180.903 289.274 180.747 289.597 180.532 289.881C180.093 290.442 177.868 290.845 177.868 290.845V290.397Z" fill="#9A4A4D"/>
<path d="M177.801 286.363C177.801 286.455 177.838 286.544 177.903 286.609C177.968 286.674 178.057 286.711 178.149 286.711C178.232 286.696 178.307 286.652 178.361 286.588C178.416 286.523 178.445 286.442 178.445 286.358C178.445 286.273 178.416 286.192 178.361 286.127C178.307 286.063 178.232 286.019 178.149 286.005C178.102 286.005 178.056 286.014 178.013 286.032C177.97 286.05 177.931 286.077 177.899 286.11C177.866 286.144 177.841 286.183 177.824 286.227C177.807 286.27 177.799 286.317 177.801 286.363Z" fill="#211C1C"/>
<path d="M178.183 285.075L178.913 285.478C178.962 285.376 178.971 285.26 178.938 285.152C178.904 285.044 178.831 284.952 178.733 284.896C178.686 284.869 178.633 284.852 178.579 284.847C178.525 284.842 178.47 284.848 178.419 284.865C178.367 284.881 178.319 284.909 178.279 284.945C178.238 284.981 178.205 285.025 178.183 285.075Z" fill="#211C1C"/>
<path d="M178.025 288.604L177.239 288.896C177.277 289 177.355 289.086 177.456 289.134C177.557 289.183 177.672 289.189 177.778 289.153C177.882 289.111 177.965 289.03 178.011 288.928C178.057 288.826 178.062 288.71 178.025 288.604Z" fill="#9A4A4D"/>
<path d="M174.767 285.355L175.441 284.851C175.409 284.805 175.369 284.766 175.322 284.737C175.275 284.707 175.223 284.688 175.168 284.679C175.113 284.671 175.057 284.674 175.004 284.688C174.95 284.702 174.9 284.727 174.857 284.761C174.768 284.83 174.71 284.93 174.693 285.04C174.677 285.151 174.703 285.263 174.767 285.355Z" fill="#211C1C"/>
<path d="M174.98 286.263C174.98 286.352 175.016 286.437 175.079 286.5C175.142 286.563 175.228 286.599 175.317 286.599C175.406 286.599 175.492 286.563 175.555 286.5C175.618 286.437 175.654 286.352 175.654 286.263C175.655 286.217 175.648 286.172 175.632 286.129C175.616 286.086 175.591 286.047 175.56 286.014C175.529 285.98 175.491 285.954 175.449 285.935C175.408 285.916 175.363 285.906 175.317 285.904C175.271 285.906 175.226 285.916 175.185 285.935C175.143 285.954 175.105 285.98 175.074 286.014C175.043 286.047 175.018 286.086 175.002 286.129C174.986 286.172 174.979 286.217 174.98 286.263Z" fill="#211C1C"/>
<path d="M176.587 286.218L176.902 288.246L175.778 288.111L176.587 286.218Z" fill="#9A4A4D"/>
<path d="M15.734 282.543C14.3153 282.543 12.9547 281.981 11.9515 280.981C10.9483 279.98 10.3846 278.624 10.3846 277.209V276.985C10.3846 275.797 10.8583 274.657 11.7013 273.816C12.5443 272.976 13.6877 272.503 14.8799 272.503H16.5095C17.7017 272.503 18.8451 272.976 19.6882 273.816C20.5312 274.657 21.0048 275.797 21.0048 276.985V277.209C21.0049 278.61 20.4522 279.955 19.4659 280.953C18.4797 281.951 17.1391 282.522 15.734 282.543Z" fill="#211C1C"/>
<path d="M19.7015 293.478C18.9934 289.904 17.6336 285.96 17.701 284.178L18.7462 284.246C19.3707 284.286 19.963 284.536 20.4264 284.955C20.8898 285.374 21.1968 285.938 21.2973 286.554C21.6681 288.884 22.2413 292.436 22.4211 293.893C22.6553 295.711 23.0578 297.504 23.6236 299.248C23.7202 299.499 23.9091 299.704 24.1518 299.82C24.6648 300.129 25.1336 300.506 25.5453 300.94C25.9274 301.288 26.2421 301.355 26.1972 301.478C26.1397 301.615 26.0321 301.724 25.8964 301.785C25.7607 301.845 25.607 301.852 25.4667 301.803C25.1563 301.703 24.8585 301.567 24.5788 301.4C24.8257 301.933 25.1599 302.421 25.5678 302.845C26.5006 303.82 26.5793 304.447 24.871 304.593C23.7472 304.683 22.8931 304.089 21.9041 301.792C21.5248 300.953 21.2056 300.088 20.9489 299.204C20.3982 296.918 19.9824 294.89 19.7015 293.478Z" fill="#B16668"/>
<path d="M17.2628 284.123C18.2528 284.028 19.2506 284.186 20.1623 284.582C20.5314 284.795 20.8404 285.098 21.0604 285.463C21.2805 285.827 21.4046 286.241 21.421 286.666C21.6345 287.719 21.9829 290.487 21.9829 290.487C21.9829 290.487 21.3985 291.764 18.8025 291.238L17.2628 284.123Z" fill="#211C1C"/>
<path d="M9.85677 325.31C9.85677 325.31 9.72192 325.31 9.3061 325.568C8.83403 325.861 8.42215 326.242 8.09237 326.688C8.04828 327.014 8.07353 327.344 8.16648 327.659C8.25944 327.974 8.41801 328.265 8.6318 328.515C9.05434 329.149 9.27739 329.894 9.27237 330.655C9.30848 331.146 9.44712 331.623 9.67937 332.057C9.91161 332.492 10.2323 332.873 10.621 333.176C11.3177 333.658 12.1831 334.151 12.5652 334.027C12.9473 333.904 12.981 333.422 12.4865 331.293C12.0738 329.89 11.7806 328.455 11.6099 327.002L9.85677 325.31Z" fill="#211C1C"/>
<path d="M10.1602 324.907L9.69946 325.523C9.62692 325.617 9.5762 325.727 9.55094 325.843C9.52569 325.959 9.52651 326.079 9.55336 326.195C9.62223 326.611 9.8374 326.988 10.1602 327.26C10.3442 327.397 10.5714 327.465 10.8008 327.45C10.959 327.438 11.1128 327.393 11.2523 327.318C11.3918 327.243 11.5137 327.139 11.61 327.013L11.9696 326.531L10.1602 324.907Z" fill="#B16668"/>
<path d="M21.084 298.521L18.398 299.529L16.1504 303.518H16.2965L17.4877 312.885C16.5459 313.52 15.743 314.34 15.1277 315.294C14.1387 316.817 10.2053 324.907 10.2053 324.907C10.2053 324.907 10.6661 326.711 12.0147 326.532C12.0147 326.532 14.105 323.932 16.3526 321.086C18.2695 318.819 20.0484 316.44 21.6796 313.96C22.7135 310.33 21.084 298.521 21.084 298.521Z" fill="#FFF2C1"/>
<path d="M15.0824 315.293C14.0934 316.817 10.16 324.907 10.16 324.907C10.16 324.907 10.6208 326.711 11.9694 326.531C11.9694 326.531 14.0597 323.932 16.3074 321.086L15.0824 315.293Z" fill="#FFF2C1"/>
<path opacity="0.2" d="M15.0824 315.293C14.0934 316.817 10.16 324.907 10.16 324.907C10.16 324.907 10.6208 326.711 11.9694 326.531C11.9694 326.531 14.0597 323.932 16.3074 321.086L15.0824 315.293Z" fill="black"/>
<path d="M15.4083 330.711C16.0549 330.224 16.7659 329.828 17.5211 329.534C17.8673 329.542 18.2126 329.572 18.555 329.624C18.8613 329.657 19.1703 329.657 19.4765 329.624C20.124 329.484 20.7591 329.293 21.3758 329.052C21.6391 328.934 21.9199 328.858 22.2074 328.828C22.6907 328.828 23.0728 328.828 23.1739 329.389C23.2022 329.559 23.2022 329.733 23.1739 329.904C23.1203 330.401 22.9485 330.877 22.6729 331.294C22.3973 331.711 22.0258 332.057 21.5893 332.302C21.196 332.492 20.679 332.627 20.2632 332.784C19.6343 332.95 19.0214 333.171 18.4314 333.445C17.5436 334.016 16.7007 334.565 15.6443 334.005C15.4281 333.915 15.239 333.77 15.0952 333.586C14.9515 333.401 14.858 333.183 14.8239 332.952C14.6778 332.302 15.3971 331.305 15.4083 330.711Z" fill="#211C1C"/>
<path d="M20.7579 298.027L10.3513 298.688C9.60954 301.053 9.62078 303.17 10.4412 307.764C11.0331 310.722 11.8445 313.632 12.8686 316.47C12.3945 318.03 12.3711 319.692 12.8012 321.265C13.6553 324.078 15.2849 331.193 15.2849 331.193C16.0417 330.49 16.9216 329.931 17.8809 329.545C17.8809 329.545 17.3752 325.254 17.1279 322.408C16.8807 319.562 16.7346 317.187 16.6447 315.428C16.4986 312.627 16.094 303.518 16.094 303.518H16.2401C16.2401 303.518 20.0499 302.128 20.7354 299.036L20.7579 298.027Z" fill="#FFF2C1"/>
<path opacity="0.2" d="M16.1051 303.518C17.3607 302.934 18.5293 302.18 19.5777 301.277L16.8805 303.798L17.3638 312.235L16.1051 303.518Z" fill="black"/>
<path d="M6.77723 295.954C7.16401 292.797 7.74195 289.665 8.50791 286.576C8.59042 286.12 8.81313 285.7 9.14529 285.375C9.47745 285.049 9.90266 284.835 10.3622 284.761C13.3179 286.352 13.2954 288.47 10.778 291.013C10.778 291.013 9.72163 295.137 9.39572 297.142C9.05305 298.948 8.88746 300.783 8.90126 302.621C8.92195 302.888 9.03754 303.138 9.22716 303.327C9.63967 303.769 9.98088 304.271 10.2386 304.817C10.5083 305.265 10.7893 305.411 10.7106 305.523C10.6162 305.635 10.4829 305.708 10.3371 305.727C10.1913 305.746 10.0437 305.709 9.92392 305.624C9.65177 305.442 9.40274 305.227 9.18221 304.985C9.27059 305.562 9.44878 306.122 9.71039 306.644C10.3173 307.842 10.2161 308.47 8.58657 308.123C7.53017 307.898 6.8334 307.069 6.55245 304.582C6.43402 303.668 6.37771 302.747 6.38388 301.826C6.45131 299.45 6.64237 297.389 6.77723 295.954Z" fill="#B16668"/>
<path d="M13.5541 284.235L10.3624 284.761C13.3181 286.834 10.7783 291.013 10.7783 291.013L12.3516 295.372C11.571 296.419 10.9042 297.546 10.3624 298.733C11.3289 299.574 17.1054 301.557 21.0837 298.565C21.0837 298.565 20.859 296.985 20.3869 294.599C21.1961 290.722 21.4209 289.355 21.1849 288.448C20.5218 285.893 19.0047 284.268 17.274 284.167L13.5541 284.235Z" fill="#455A64"/>
<path d="M19.3417 274.621C19.9036 274.957 20.6004 276.369 20.5329 279.338C20.4767 281.859 19.6564 282.487 19.2405 282.7C18.5892 282.83 17.9166 282.811 17.2738 282.643V284.122C17.2738 284.122 18.3302 285.355 18.2628 286.05C18.1954 286.744 16.7344 286.912 15.7342 286.229C15.01 285.674 14.3866 284.999 13.8911 284.235V280.761C13.8911 280.761 13.4416 281.198 12.6662 280.537C12.3577 280.316 12.1484 279.984 12.0833 279.611C12.0181 279.238 12.1023 278.854 12.3178 278.543C12.4474 278.429 12.6018 278.346 12.7688 278.301C12.9358 278.256 13.1109 278.25 13.2806 278.284C13.4503 278.317 13.6098 278.389 13.7469 278.495C13.884 278.6 13.9949 278.735 14.0709 278.89C15.0825 278.849 16.0676 278.556 16.9367 278.038C17.5798 277.699 18.133 277.212 18.551 276.618C18.9691 276.024 19.24 275.34 19.3417 274.621Z" fill="#B16668"/>
<path d="M17.7004 278.711C17.7002 278.772 17.6822 278.831 17.6486 278.882C17.6149 278.933 17.5671 278.973 17.5109 278.998C17.4547 279.022 17.3927 279.029 17.3324 279.019C17.2721 279.009 17.2162 278.981 17.1714 278.939C17.1267 278.898 17.0951 278.844 17.0806 278.784C17.066 278.725 17.0691 278.663 17.0895 278.605C17.1099 278.548 17.1467 278.497 17.1953 278.46C17.244 278.423 17.3025 278.401 17.3635 278.397C17.4063 278.395 17.4489 278.402 17.489 278.417C17.5291 278.432 17.5658 278.455 17.5971 278.484C17.6284 278.513 17.6536 278.548 17.6714 278.587C17.6891 278.626 17.6989 278.668 17.7004 278.711Z" fill="#211C1C"/>
<path d="M17.7909 280.851L18.5208 281.075C18.5079 281.125 18.485 281.172 18.4534 281.213C18.4219 281.253 18.3823 281.287 18.3371 281.313C18.292 281.338 18.2422 281.354 18.1908 281.359C18.1393 281.364 18.0873 281.359 18.038 281.344C17.9401 281.311 17.8592 281.24 17.813 281.148C17.7667 281.056 17.7588 280.949 17.7909 280.851Z" fill="#9A4A4D"/>
<path d="M20.3081 277.736L19.668 277.299C19.693 277.254 19.7272 277.216 19.7683 277.186C19.8094 277.156 19.8565 277.134 19.9065 277.124C19.9564 277.113 20.008 277.113 20.0579 277.124C20.1078 277.135 20.1548 277.156 20.1958 277.187C20.2821 277.246 20.3421 277.336 20.3631 277.439C20.384 277.541 20.3643 277.648 20.3081 277.736Z" fill="#211C1C"/>
<path d="M20.1616 278.52C20.1704 278.567 20.1688 278.616 20.1568 278.662C20.1448 278.708 20.1227 278.751 20.0922 278.788C20.0616 278.825 20.0233 278.854 19.98 278.875C19.9367 278.895 19.8894 278.905 19.8415 278.905C19.7937 278.905 19.7464 278.895 19.7031 278.875C19.6597 278.854 19.6214 278.825 19.5909 278.788C19.5603 278.751 19.5382 278.708 19.5263 278.662C19.5143 278.616 19.5126 278.567 19.5215 278.52C19.5184 278.478 19.5239 278.436 19.5377 278.396C19.5514 278.356 19.5731 278.319 19.6014 278.288C19.6297 278.257 19.6641 278.231 19.7024 278.213C19.7408 278.196 19.7824 278.186 19.8247 278.184C19.8693 278.183 19.9138 278.19 19.9554 278.207C19.997 278.223 20.0348 278.248 20.0664 278.279C20.098 278.311 20.1227 278.348 20.1391 278.39C20.1555 278.431 20.1631 278.476 20.1616 278.52Z" fill="#211C1C"/>
<path d="M18.6562 278.296L18.7124 280.201L19.7126 279.898L18.6562 278.296Z" fill="#9A4A4D"/>
<path d="M17.2627 282.61C16.4424 282.498 14.7791 282.016 14.5206 281.366C14.6204 281.701 14.8251 281.996 15.105 282.206C15.7803 282.604 16.506 282.909 17.2627 283.114V282.61Z" fill="#9A4A4D"/>
<path d="M11.5087 293.052L13.7338 296.055L12.3515 295.372L11.5087 293.052Z" fill="#211C1C"/>
<path d="M12.2279 271.955C12.6498 272.193 12.9882 272.554 13.1975 272.991C13.4069 273.427 13.4771 273.916 13.3988 274.393C13.3204 274.87 13.0972 275.312 12.7592 275.659C12.4213 276.006 11.9848 276.241 11.5087 276.332C11.0326 276.424 10.5397 276.368 10.0965 276.172C9.6533 275.976 9.28107 275.649 9.02999 275.235C8.77891 274.822 8.66105 274.341 8.69231 273.859C8.72357 273.376 8.90244 272.915 9.2048 272.537C9.53969 272.075 10.0389 271.757 10.6006 271.649C11.1623 271.54 11.7443 271.65 12.2279 271.955Z" fill="#211C1C"/>
<path d="M10.3511 284.761C9.89036 284.873 8.71034 284.761 8.10347 287.092C7.49661 289.422 7.1145 291.663 7.1145 291.663C7.52378 292.13 8.06017 292.469 8.65861 292.638C9.25706 292.807 9.89184 292.799 10.486 292.616C10.486 292.616 11.2502 290.285 11.7447 288.75C12.2392 287.215 11.9694 285.321 10.3511 284.761Z" fill="#211C1C"/>
</svg>
