<svg width="655" height="489" viewBox="0 0 655 489" fill="none" xmlns="http://www.w3.org/2000/svg">
<path d="M101.438 440.231C226.293 505.256 428.707 505.256 553.562 440.231C678.417 375.206 678.402 269.772 553.562 204.747C428.722 139.722 226.293 139.722 101.438 204.747C-23.4168 269.772 -23.4019 375.236 101.438 440.231Z" fill="#F5F5F5"/>
<path d="M555.872 389.943C548.892 392.796 541.066 392.796 534.086 389.943C528.126 387.076 528.126 382.515 534.086 379.544C541.063 376.676 548.895 376.676 555.872 379.544C561.892 382.441 561.892 387.121 555.872 389.943Z" fill="#E0E0E0"/>
<path d="M77.9392 381.683C85.0414 384.596 93.0095 384.596 100.112 381.683C106.236 378.712 106.236 374.047 100.112 371.136C93.0063 368.239 85.0446 368.239 77.9392 371.136C71.8149 374.047 71.8149 378.772 77.9392 381.683Z" fill="#E0E0E0"/>
<path d="M453.845 348.495C457.57 348.97 461.876 347.692 463.739 345.226C465.929 342.329 464.961 337.798 466.019 335.377C467.077 332.955 470.489 333.341 472.084 331.291C473.678 329.241 471.204 324.339 472.084 321.739C472.963 319.139 475.496 316.658 476.643 314.875C477.791 313.093 476.643 310.418 472.724 311.77C468.805 313.122 466.764 317.802 462.964 317.015C459.164 316.227 455.916 318.5 455.856 322.259C455.964 323.729 455.676 325.201 455.022 326.523C454.307 327.681 452.399 328.335 451.535 330.133L453.845 348.495Z" fill="#FFF2C1"/>
<path opacity="0.2" d="M453.845 348.495C457.57 348.97 461.876 347.692 463.739 345.226C465.929 342.329 464.961 337.798 466.019 335.377C467.077 332.955 470.489 333.341 472.084 331.291C473.678 329.241 471.204 324.339 472.084 321.739C472.963 319.139 475.496 316.658 476.643 314.875C477.791 313.093 476.643 310.418 472.724 311.77C468.805 313.122 466.764 317.802 462.964 317.015C459.164 316.227 455.916 318.5 455.856 322.259C455.964 323.729 455.676 325.201 455.022 326.523C454.307 327.681 452.399 328.335 451.535 330.133L453.845 348.495Z" fill="black"/>
<path d="M474.9 312.84C469.431 315.811 454.59 332.807 453.368 341.839" stroke="white" stroke-width="0.5" stroke-miterlimit="10" stroke-linecap="round"/>
<path d="M115.653 303.124L182.231 264.795V101.036L115.653 139.365V303.124Z" fill="#37474F"/>
<path d="M115.653 139.365L43.0115 97.5601V261.304L115.653 303.124V139.365Z" fill="#455A64"/>
<path d="M182.231 101.036L109.604 59.2313L43.0115 97.5601L115.653 139.365L182.231 101.036Z" fill="#37474F"/>
<path d="M70.2061 276.992V249.107L89.0259 259.893V287.763L70.2061 276.992Z" fill="#E0E0E0"/>
<path d="M78.4163 253.817L80.2491 254.871V282.741L78.4163 281.687V253.817Z" fill="#211C1C"/>
<path d="M108.039 256.907V241.367L95.582 234.192V249.731L108.039 256.907Z" fill="#E0E0E0"/>
<path d="M95.582 249.731L98.6963 247.949V235.989L95.582 234.192V249.731Z" fill="#211C1C"/>
<path d="M108.039 253.326L98.6963 247.948L95.582 249.731L108.039 256.907V253.326Z" fill="#37474F"/>
<path d="M108.039 286.678V271.139L95.582 263.978V279.518L108.039 286.678Z" fill="#E0E0E0"/>
<path d="M95.582 279.518L98.6963 277.72V265.761L95.582 263.978V279.518Z" fill="#211C1C"/>
<path d="M108.039 283.098L98.6963 277.72L95.582 279.518L108.039 286.678V283.098Z" fill="#37474F"/>
<path d="M108.039 227.759V212.22L95.582 205.059V220.599L108.039 227.759Z" fill="#E0E0E0"/>
<path d="M95.582 220.599L98.6963 218.801V206.842L95.582 205.059V220.599Z" fill="#211C1C"/>
<path d="M108.039 224.179L98.6963 218.801L95.582 220.598L108.039 227.759V224.179Z" fill="#37474F"/>
<path d="M108.039 198.612V183.072L95.582 175.911V191.451L108.039 198.612Z" fill="#E0E0E0"/>
<path d="M95.582 191.451L98.6963 189.653V177.694L95.582 175.911V191.451Z" fill="#211C1C"/>
<path d="M108.039 195.031L98.6963 189.653L95.582 191.451L108.039 198.612V195.031Z" fill="#37474F"/>
<path d="M108.039 169.479V153.924L95.582 146.764V162.303L108.039 169.479Z" fill="#E0E0E0"/>
<path d="M95.582 162.303L98.6963 160.505V148.561L95.582 146.764V162.303Z" fill="#211C1C"/>
<path d="M108.039 165.883L98.6963 160.505L95.582 162.303L108.039 169.478V165.883Z" fill="#37474F"/>
<path d="M63.0978 231.042V215.503L50.6406 208.327V223.867L63.0978 231.042Z" fill="#E0E0E0"/>
<path d="M50.6406 223.867L53.7549 222.084V210.125L50.6406 208.327V223.867Z" fill="#211C1C"/>
<path d="M63.0978 227.462L53.7549 222.084L50.6406 223.867L63.0978 231.042V227.462Z" fill="#37474F"/>
<path d="M63.0978 260.814V245.274L50.6406 238.114V253.638L63.0978 260.814Z" fill="#E0E0E0"/>
<path d="M50.6406 253.638L53.7549 251.856V239.896L50.6406 238.114V253.638Z" fill="#211C1C"/>
<path d="M63.0978 257.233L53.7549 251.855L50.6406 253.638L63.0978 260.814V257.233Z" fill="#37474F"/>
<path d="M63.0978 201.642V186.102L50.6406 178.942V194.481L63.0978 201.642Z" fill="#E0E0E0"/>
<path d="M50.6406 194.481L53.7549 192.684V180.724L50.6406 178.942V194.481Z" fill="#211C1C"/>
<path d="M63.0978 198.062L53.7549 192.684L50.6406 194.481L63.0978 201.642V198.062Z" fill="#37474F"/>
<path d="M63.0978 172.257V156.717L50.6406 149.542V165.081L63.0978 172.257Z" fill="#E0E0E0"/>
<path d="M50.6406 165.081L53.7549 163.298V151.339L50.6406 149.542V165.081Z" fill="#211C1C"/>
<path d="M63.0978 168.676L53.7549 163.298L50.6406 165.081L63.0978 172.257V168.676Z" fill="#37474F"/>
<path d="M63.0978 142.856V127.317L50.6406 120.156V135.696L63.0978 142.856Z" fill="#FAFAFA"/>
<path d="M50.6406 135.696L53.7549 133.898V121.939L50.6406 120.156V135.696Z" fill="#211C1C"/>
<path d="M63.0978 139.276L53.7549 133.898L50.6406 135.696L63.0978 142.856V139.276Z" fill="#37474F"/>
<path d="M70.2061 130.63L77.4628 134.804V239.317L70.2061 235.157V130.63Z" fill="#FAFAFA"/>
<path d="M70.2061 130.63L73.2756 132.398V233.434L70.2061 235.157V130.63Z" fill="#211C1C"/>
<path d="M73.2756 233.434L77.4628 235.752V239.317L70.2061 235.157L73.2756 233.434Z" fill="#37474F"/>
<path d="M81.7539 137.211L89.0256 141.371V245.898L81.7539 241.724V137.211Z" fill="#FAFAFA"/>
<path d="M81.7539 137.211L84.8235 138.979V240L81.7539 241.724V137.211Z" fill="#211C1C"/>
<path d="M84.8235 240L89.0256 242.318V245.898L81.7539 241.724L84.8235 240Z" fill="#37474F"/>
<path d="M123.357 256.907V241.367L135.8 234.192V249.731L123.357 256.907Z" fill="#E0E0E0"/>
<path d="M135.8 249.731L132.685 247.949L132.7 235.989L135.8 234.192V249.731Z" fill="#455A64"/>
<path d="M123.357 253.326L132.685 247.948L135.8 249.731L123.357 256.907V253.326Z" fill="#211C1C"/>
<path d="M142.713 245.809V230.27L155.171 223.109V238.648L142.713 245.809Z" fill="#E0E0E0"/>
<path d="M155.171 238.648L152.056 236.851V224.892L155.171 223.109V238.648Z" fill="#455A64"/>
<path d="M142.713 242.229L152.056 236.851L155.171 238.649L142.713 245.809V242.229Z" fill="#211C1C"/>
<path d="M162.07 234.726V219.187L174.527 212.011V227.551L162.07 234.726Z" fill="#E0E0E0"/>
<path d="M174.527 227.551L171.413 225.768V213.809L174.527 212.011V227.551Z" fill="#455A64"/>
<path d="M162.07 231.131L171.413 225.768L174.527 227.551L162.07 234.727V231.131Z" fill="#211C1C"/>
<path d="M123.357 286.678V271.139L135.8 263.978V279.518L123.357 286.678Z" fill="#E0E0E0"/>
<path d="M135.8 279.518L132.685 277.72L132.7 265.761L135.8 263.978V279.518Z" fill="#455A64"/>
<path d="M123.357 283.098L132.685 277.72L135.8 279.518L123.357 286.678V283.098Z" fill="#211C1C"/>
<path d="M142.713 275.596V260.041L155.171 252.881V268.42L142.713 275.596Z" fill="#E0E0E0"/>
<path d="M155.171 268.42L152.056 266.623V254.678L155.171 252.881V268.42Z" fill="#455A64"/>
<path d="M142.713 272L152.056 266.623L155.171 268.42L142.713 275.596V272Z" fill="#211C1C"/>
<path d="M162.07 264.498V248.959L174.527 241.783V257.323L162.07 264.498Z" fill="#E0E0E0"/>
<path d="M174.527 257.323L171.413 255.54V243.581L174.527 241.783V257.323Z" fill="#455A64"/>
<path d="M162.07 260.918L171.413 255.54L174.527 257.323L162.07 264.498V260.918Z" fill="#211C1C"/>
<path d="M123.357 227.759V212.22L135.8 205.059V220.599L123.357 227.759Z" fill="#E0E0E0"/>
<path d="M135.8 220.599L132.685 218.801L132.7 206.842L135.8 205.059V220.599Z" fill="#455A64"/>
<path d="M123.357 224.179L132.685 218.801L135.8 220.598L123.357 227.759V224.179Z" fill="#211C1C"/>
<path d="M142.713 216.543V201.003L155.171 193.843V209.382L142.713 216.543Z" fill="#E0E0E0"/>
<path d="M155.171 209.382L152.056 207.584V195.625L155.171 193.843V209.382Z" fill="#455A64"/>
<path d="M142.713 212.962L152.056 207.584L155.171 209.382L142.713 216.543V212.962Z" fill="#211C1C"/>
<path d="M162.07 205.326V189.787L174.527 182.626V198.166L162.07 205.326Z" fill="#E0E0E0"/>
<path d="M174.527 198.166L171.413 196.368V184.409L174.527 182.626V198.166Z" fill="#455A64"/>
<path d="M162.07 201.746L171.413 196.368L174.527 198.166L162.07 205.326V201.746Z" fill="#211C1C"/>
<path d="M123.357 198.612V183.072L135.8 175.911V191.451L123.357 198.612Z" fill="#E0E0E0"/>
<path d="M135.8 191.451L132.685 189.653L132.7 177.694L135.8 175.911V191.451Z" fill="#455A64"/>
<path d="M123.357 195.031L132.685 189.653L135.8 191.451L123.357 198.612V195.031Z" fill="#211C1C"/>
<path d="M142.713 187.276V171.737L155.171 164.561V180.116L142.713 187.276Z" fill="#E0E0E0"/>
<path d="M155.171 180.116L152.056 178.318V166.359L155.171 164.561V180.116Z" fill="#455A64"/>
<path d="M142.713 183.696L152.056 178.318L155.171 180.115L142.713 187.276V183.696Z" fill="#211C1C"/>
<path d="M162.07 175.941V160.401L174.527 153.226V168.765L162.07 175.941Z" fill="#E0E0E0"/>
<path d="M174.527 168.765L171.413 166.983V155.024L174.527 153.226V168.765Z" fill="#455A64"/>
<path d="M162.07 172.36L171.413 166.983L174.527 168.765L162.07 175.941V172.36Z" fill="#211C1C"/>
<path d="M123.357 169.479V153.924L135.8 146.764V162.303L123.357 169.479Z" fill="#E0E0E0"/>
<path d="M135.8 162.303L132.685 160.505L132.7 148.561L135.8 146.764V162.303Z" fill="#455A64"/>
<path d="M123.357 165.883L132.685 160.505L135.8 162.303L123.357 169.478V165.883Z" fill="#211C1C"/>
<path d="M142.713 158.01V142.47L155.171 135.295V150.834L142.713 158.01Z" fill="#E0E0E0"/>
<path d="M155.171 150.834L152.056 149.051V137.092L155.171 135.295V150.834Z" fill="#455A64"/>
<path d="M142.713 154.429L152.056 149.051L155.171 150.834L142.713 158.01V154.429Z" fill="#211C1C"/>
<path d="M162.07 146.541V131.001L174.527 123.841V139.38L162.07 146.541Z" fill="#E0E0E0"/>
<path d="M174.527 139.38L171.413 137.582V125.623L174.527 123.841V139.38Z" fill="#455A64"/>
<path d="M162.07 142.96L171.413 137.582L174.527 139.38L162.07 146.541V142.96Z" fill="#211C1C"/>
<path d="M55.126 97.5601L109.604 66.1989L170.116 101.036L115.654 132.398L55.126 97.5601Z" fill="#F0F0F0"/>
<path d="M109.604 66.1989V73.1664L164.067 104.528L170.117 101.036L109.604 66.1989Z" fill="#455A64"/>
<path d="M109.604 66.1989L55.126 97.5601L61.1757 101.036L109.604 73.1664V66.1989Z" fill="#211C1C"/>
<path d="M535.756 303.124L469.178 264.795V101.036L535.77 139.365L535.756 303.124Z" fill="#455A64"/>
<path d="M535.77 139.365L608.397 97.5601V261.304L535.755 303.124L535.77 139.365Z" fill="#37474F"/>
<path d="M469.178 101.036L541.82 59.2313L608.398 97.5601L535.77 139.365L469.178 101.036Z" fill="#37474F"/>
<path d="M581.219 276.992V249.107L562.384 259.893L562.399 287.763L581.219 276.992Z" fill="#E0E0E0"/>
<path d="M572.993 253.817L571.175 254.871V282.741L572.993 281.687V253.817Z" fill="#211C1C"/>
<path d="M543.37 256.907V241.367L555.827 234.192V249.731L543.37 256.907Z" fill="#E0E0E0"/>
<path d="M555.827 249.731L552.712 247.949V235.989L555.827 234.192V249.731Z" fill="#211C1C"/>
<path d="M543.37 253.326L552.713 247.948L555.827 249.731L543.37 256.907V253.326Z" fill="#455A64"/>
<path d="M543.37 286.678V271.139L555.827 263.978V279.518L543.37 286.678Z" fill="#E0E0E0"/>
<path d="M555.827 279.518L552.712 277.72V265.761L555.827 263.978V279.518Z" fill="#211C1C"/>
<path d="M543.37 283.098L552.713 277.72L555.827 279.518L543.37 286.678V283.098Z" fill="#455A64"/>
<path d="M543.37 227.759V212.22L555.827 205.059V220.599L543.37 227.759Z" fill="#E0E0E0"/>
<path d="M555.827 220.599L552.712 218.801V206.842L555.827 205.059V220.599Z" fill="#211C1C"/>
<path d="M543.37 224.179L552.713 218.801L555.827 220.598L543.37 227.759V224.179Z" fill="#455A64"/>
<path d="M543.37 198.612V183.072L555.827 175.911V191.451L543.37 198.612Z" fill="#E0E0E0"/>
<path d="M555.827 191.451L552.712 189.653V177.694L555.827 175.911V191.451Z" fill="#211C1C"/>
<path d="M543.37 195.031L552.713 189.653L555.827 191.451L543.37 198.612V195.031Z" fill="#455A64"/>
<path d="M543.37 169.479V153.924L555.827 146.764V162.303L543.37 169.479Z" fill="#E0E0E0"/>
<path d="M555.827 162.303L552.712 160.505V148.561L555.827 146.764V162.303Z" fill="#211C1C"/>
<path d="M543.37 165.883L552.713 160.505L555.827 162.303L543.37 169.478V165.883Z" fill="#455A64"/>
<path d="M588.326 231.042V215.503L600.768 208.327V223.867L588.326 231.042Z" fill="#E0E0E0"/>
<path d="M600.768 223.867L597.669 222.084V210.125L600.768 208.327V223.867Z" fill="#211C1C"/>
<path d="M588.326 227.462L597.669 222.084L600.768 223.867L588.326 231.042V227.462Z" fill="#455A64"/>
<path d="M588.326 260.814V245.274L600.768 238.114V253.638L588.326 260.814Z" fill="#E0E0E0"/>
<path d="M600.768 253.638L597.669 251.856V239.896L600.768 238.114V253.638Z" fill="#211C1C"/>
<path d="M588.326 257.233L597.669 251.855L600.768 253.638L588.326 260.814V257.233Z" fill="#455A64"/>
<path d="M588.326 201.642V186.102L600.768 178.942V194.481L588.326 201.642Z" fill="#E0E0E0"/>
<path d="M600.768 194.481L597.669 192.684V180.724L600.768 178.942V194.481Z" fill="#211C1C"/>
<path d="M588.326 198.062L597.669 192.684L600.768 194.481L588.326 201.642V198.062Z" fill="#455A64"/>
<path d="M588.326 172.257V156.717L600.768 149.542V165.081L588.326 172.257Z" fill="#E0E0E0"/>
<path d="M600.768 165.081L597.669 163.298V151.339L600.768 149.542V165.081Z" fill="#211C1C"/>
<path d="M588.326 168.676L597.669 163.298L600.768 165.081L588.326 172.257V168.676Z" fill="#455A64"/>
<path d="M588.326 142.856V127.317L600.768 120.156V135.696L588.326 142.856Z" fill="#FAFAFA"/>
<path d="M600.768 135.696L597.669 133.898V121.939L600.768 120.156V135.696Z" fill="#211C1C"/>
<path d="M588.326 139.276L597.669 133.898L600.768 135.696L588.326 142.856V139.276Z" fill="#455A64"/>
<path d="M581.218 130.63L573.946 134.804V239.317L581.218 235.157V130.63Z" fill="#FAFAFA"/>
<path d="M581.218 130.63L578.134 132.398V233.434L581.218 235.157V130.63Z" fill="#211C1C"/>
<path d="M578.133 233.434L573.946 235.752V239.317L581.218 235.157L578.133 233.434Z" fill="#455A64"/>
<path d="M569.655 137.211L562.398 141.371V245.898L569.655 241.724V137.211Z" fill="#FAFAFA"/>
<path d="M569.655 137.211L566.585 138.979V240L569.655 241.724V137.211Z" fill="#211C1C"/>
<path d="M566.586 240L562.398 242.318V245.898L569.655 241.724L566.586 240Z" fill="#455A64"/>
<path d="M528.066 256.907V241.367L515.609 234.192V249.731L528.066 256.907Z" fill="#E0E0E0"/>
<path d="M515.609 249.731L518.723 247.949V235.989L515.609 234.192V249.731Z" fill="#37474F"/>
<path d="M528.066 253.326L518.723 247.948L515.609 249.731L528.066 256.907V253.326Z" fill="#211C1C"/>
<path d="M508.695 245.809V230.27L496.253 223.109V238.648L508.695 245.809Z" fill="#E0E0E0"/>
<path d="M496.253 238.648L499.353 236.851V224.892L496.253 223.109V238.648Z" fill="#37474F"/>
<path d="M508.695 242.229L499.353 236.851L496.253 238.649L508.695 245.809V242.229Z" fill="#211C1C"/>
<path d="M489.339 234.726V219.187L476.882 212.011V227.551L489.339 234.726Z" fill="#E0E0E0"/>
<path d="M476.882 227.551L479.996 225.768V213.809L476.882 212.011V227.551Z" fill="#37474F"/>
<path d="M489.339 231.131L479.996 225.768L476.882 227.551L489.339 234.727V231.131Z" fill="#211C1C"/>
<path d="M528.066 286.678V271.139L515.609 263.978V279.518L528.066 286.678Z" fill="#E0E0E0"/>
<path d="M515.609 279.518L518.723 277.72V265.761L515.609 263.978V279.518Z" fill="#37474F"/>
<path d="M528.066 283.098L518.723 277.72L515.609 279.518L528.066 286.678V283.098Z" fill="#211C1C"/>
<path d="M508.695 275.596V260.041L496.253 252.881V268.42L508.695 275.596Z" fill="#E0E0E0"/>
<path d="M496.253 268.42L499.353 266.623V254.678L496.253 252.881V268.42Z" fill="#37474F"/>
<path d="M508.695 272L499.353 266.623L496.253 268.42L508.695 275.596V272Z" fill="#211C1C"/>
<path d="M489.339 264.498V248.959L476.882 241.783V257.323L489.339 264.498Z" fill="#E0E0E0"/>
<path d="M476.882 257.323L479.996 255.54V243.581L476.882 241.783V257.323Z" fill="#37474F"/>
<path d="M489.339 260.918L479.996 255.54L476.882 257.323L489.339 264.498V260.918Z" fill="#211C1C"/>
<path d="M528.066 227.759V212.22L515.609 205.059V220.599L528.066 227.759Z" fill="#E0E0E0"/>
<path d="M515.609 220.599L518.723 218.801V206.842L515.609 205.059V220.599Z" fill="#37474F"/>
<path d="M528.066 224.179L518.723 218.801L515.609 220.598L528.066 227.759V224.179Z" fill="#211C1C"/>
<path d="M508.695 216.543V201.003L496.253 193.843V209.382L508.695 216.543Z" fill="#E0E0E0"/>
<path d="M496.253 209.382L499.353 207.584V195.625L496.253 193.843V209.382Z" fill="#37474F"/>
<path d="M508.695 212.962L499.353 207.584L496.253 209.382L508.695 216.543V212.962Z" fill="#211C1C"/>
<path d="M489.339 205.326V189.787L476.882 182.626V198.166L489.339 205.326Z" fill="#E0E0E0"/>
<path d="M476.882 198.166L479.996 196.368V184.409L476.882 182.626V198.166Z" fill="#37474F"/>
<path d="M489.339 201.746L479.996 196.368L476.882 198.166L489.339 205.326V201.746Z" fill="#211C1C"/>
<path d="M528.066 198.612V183.072L515.609 175.911V191.451L528.066 198.612Z" fill="#E0E0E0"/>
<path d="M515.609 191.451L518.723 189.653V177.694L515.609 175.911V191.451Z" fill="#37474F"/>
<path d="M528.066 195.031L518.723 189.653L515.609 191.451L528.066 198.612V195.031Z" fill="#211C1C"/>
<path d="M508.695 187.276V171.737L496.253 164.561V180.116L508.695 187.276Z" fill="#E0E0E0"/>
<path d="M496.253 180.116L499.353 178.318V166.359L496.253 164.561V180.116Z" fill="#37474F"/>
<path d="M508.695 183.696L499.353 178.318L496.253 180.115L508.695 187.276V183.696Z" fill="#211C1C"/>
<path d="M489.339 175.941V160.401L476.882 153.226V168.765L489.339 175.941Z" fill="#E0E0E0"/>
<path d="M476.882 168.765L479.996 166.983V155.024L476.882 153.226V168.765Z" fill="#37474F"/>
<path d="M489.339 172.36L479.996 166.983L476.882 168.765L489.339 175.941V172.36Z" fill="#211C1C"/>
<path d="M528.066 169.479V153.924L515.609 146.764V162.303L528.066 169.479Z" fill="#E0E0E0"/>
<path d="M515.609 162.303L518.723 160.505V148.561L515.609 146.764V162.303Z" fill="#37474F"/>
<path d="M528.066 165.883L518.723 160.505L515.609 162.303L528.066 169.478V165.883Z" fill="#211C1C"/>
<path d="M508.695 158.01V142.47L496.253 135.295V150.834L508.695 158.01Z" fill="#E0E0E0"/>
<path d="M496.253 150.834L499.353 149.051V137.092L496.253 135.295V150.834Z" fill="#37474F"/>
<path d="M508.695 154.429L499.353 149.051L496.253 150.834L508.695 158.01V154.429Z" fill="#211C1C"/>
<path d="M489.339 146.541V131.001L476.882 123.841V139.38L489.339 146.541Z" fill="#E0E0E0"/>
<path d="M476.882 139.38L479.996 137.582V125.623L476.882 123.841V139.38Z" fill="#37474F"/>
<path d="M489.339 142.96L479.996 137.582L476.882 139.38L489.339 146.541V142.96Z" fill="#211C1C"/>
<path d="M596.298 97.5601L541.82 66.1989L481.292 101.036L535.77 132.398L596.298 97.5601Z" fill="#F0F0F0"/>
<path d="M541.82 66.1989V73.1664L487.342 104.528L481.292 101.036L541.82 66.1989Z" fill="#211C1C"/>
<path d="M541.82 66.1989L596.298 97.5601L590.233 101.036L541.82 73.1664V66.1989Z" fill="#455A64"/>
<path d="M437.007 456.157C429.432 459.261 420.934 459.261 413.359 456.157C406.833 453.052 406.833 448.031 413.359 444.926C420.934 441.821 429.432 441.821 437.007 444.926C443.549 448.031 443.549 453.052 437.007 456.157Z" fill="#E0E0E0"/>
<path d="M192.438 445.921C200.018 449.027 208.521 449.027 216.101 445.921C222.627 442.816 222.627 437.795 216.101 434.69C208.521 431.584 200.018 431.584 192.438 434.69C185.941 437.795 185.941 442.816 192.438 445.921Z" fill="#E0E0E0"/>
<path d="M330.733 444.109L475.6 360.721C476.573 360.207 477.387 359.437 477.954 358.497C478.522 357.556 478.822 356.478 478.822 355.381C478.822 354.283 478.522 353.205 477.954 352.264C477.387 351.324 476.573 350.554 475.6 350.04L330.719 266.652C329.719 266.147 328.613 265.884 327.492 265.884C326.372 265.884 325.266 266.147 324.266 266.652L179.4 349.98C178.427 350.495 177.613 351.264 177.046 352.205C176.478 353.146 176.178 354.223 176.178 355.321C176.178 356.419 176.478 357.496 177.046 358.437C177.613 359.378 178.427 360.147 179.4 360.662L324.281 444.049C325.277 444.564 326.379 444.837 327.5 444.847C328.621 444.858 329.729 444.605 330.733 444.109Z" fill="#FFF2C1"/>
<path d="M330.733 444.109L475.6 360.721C476.573 360.207 477.387 359.437 477.954 358.497C478.522 357.556 478.822 356.478 478.822 355.381C478.822 354.283 478.522 353.205 477.954 352.264C477.387 351.324 476.573 350.554 475.6 350.04L330.719 266.652C329.719 266.147 328.613 265.884 327.492 265.884C326.372 265.884 325.266 266.147 324.266 266.652L179.4 349.98C178.427 350.495 177.613 351.264 177.046 352.205C176.478 353.146 176.178 354.223 176.178 355.321C176.178 356.419 176.478 357.496 177.046 358.437C177.613 359.378 178.427 360.147 179.4 360.662L324.281 444.049C325.277 444.564 326.379 444.837 327.5 444.847C328.621 444.858 329.729 444.605 330.733 444.109Z" fill="#FFF2C1"/>
<path d="M330.733 444.109L475.6 360.721C476.573 360.207 477.387 359.437 477.954 358.497C478.522 357.556 478.822 356.478 478.822 355.381C478.822 354.283 478.522 353.205 477.954 352.264C477.387 351.324 476.573 350.554 475.6 350.04L330.719 266.652C329.719 266.147 328.613 265.884 327.492 265.884C326.372 265.884 325.266 266.147 324.266 266.652L179.4 349.98C178.427 350.495 177.613 351.264 177.046 352.205C176.478 353.146 176.178 354.223 176.178 355.321C176.178 356.419 176.478 357.496 177.046 358.437C177.613 359.378 178.427 360.147 179.4 360.662L324.281 444.049C325.277 444.564 326.379 444.837 327.5 444.847C328.621 444.858 329.729 444.605 330.733 444.109Z" fill="#FFF2C1"/>
<path opacity="0.2" d="M330.733 444.109L475.6 360.721C476.573 360.207 477.387 359.437 477.954 358.497C478.522 357.556 478.822 356.478 478.822 355.381C478.822 354.283 478.522 353.205 477.954 352.264C477.387 351.324 476.573 350.554 475.6 350.04L330.719 266.652C329.719 266.147 328.613 265.884 327.492 265.884C326.372 265.884 325.266 266.147 324.266 266.652L179.4 349.98C178.427 350.495 177.613 351.264 177.046 352.205C176.478 353.146 176.178 354.223 176.178 355.321C176.178 356.419 176.478 357.496 177.046 358.437C177.613 359.378 178.427 360.147 179.4 360.662L324.281 444.049C325.277 444.564 326.379 444.837 327.5 444.847C328.621 444.858 329.729 444.605 330.733 444.109Z" fill="black"/>
<path d="M179.4 353.754L324.281 437.141C325.281 437.646 326.387 437.909 327.507 437.909C328.628 437.909 329.734 437.646 330.734 437.141L475.6 353.754C475.99 353.622 476.328 353.372 476.567 353.039C476.806 352.706 476.935 352.307 476.935 351.897C476.935 351.487 476.806 351.087 476.567 350.754C476.328 350.421 475.99 350.171 475.6 350.04L330.719 266.652C329.719 266.147 328.613 265.884 327.493 265.884C326.372 265.884 325.266 266.147 324.267 266.652L179.4 349.98C178.988 350.097 178.625 350.344 178.367 350.684C178.109 351.025 177.969 351.44 177.969 351.867C177.969 352.294 178.109 352.709 178.367 353.05C178.625 353.39 178.988 353.637 179.4 353.754Z" fill="#FFF2C1"/>
<path d="M351.714 407.637L454.605 348.405V101.036L351.714 160.268V407.637Z" fill="#37474F"/>
<path d="M327.5 425.063V174.203L200.395 101.036V351.897L327.5 425.063Z" fill="#455A64"/>
<path d="M327.5 320.535L200.395 247.369V240.402L188.281 247.369L327.5 327.503V320.535Z" fill="#FFF2C1"/>
<path opacity="0.5" d="M327.5 320.535L200.395 247.369V240.402L188.281 247.369L327.5 327.503V320.535Z" fill="white"/>
<path d="M188.281 247.369L327.5 327.503V334.471L188.281 254.337V247.369Z" fill="#FFF2C1"/>
<path d="M327.5 320.535L351.714 306.6L357.764 310.092L327.5 327.503V320.535Z" fill="#FFF2C1"/>
<path opacity="0.5" d="M327.5 320.535L351.714 306.6L357.764 310.092L327.5 327.503V320.535Z" fill="white"/>
<path d="M327.5 334.47L357.764 317.059V310.091L327.5 327.503V334.47Z" fill="#FFF2C1"/>
<path opacity="0.2" d="M327.5 334.47L357.764 317.059V310.091L327.5 327.503V334.47Z" fill="black"/>
<path d="M327.5 174.203L351.714 160.268V306.6L327.5 320.535V174.203Z" fill="#211C1C"/>
<path d="M327.5 334.47L351.714 320.535V411.128L327.5 425.063V334.47Z" fill="#211C1C"/>
<path d="M315.401 299.633V264.795L291.187 250.86V285.698L315.401 299.633Z" fill="#FFF2C1"/>
<path opacity="0.5" d="M315.401 299.633V264.795L291.187 250.86V285.698L315.401 299.633Z" fill="white"/>
<path d="M291.187 285.698L297.236 282.222V254.337L291.187 250.86V285.698Z" fill="#211C1C"/>
<path d="M315.401 292.666L297.236 282.222L291.187 285.698L315.401 299.633V292.666Z" fill="#211C1C"/>
<path d="M279.072 278.73V243.893L248.808 226.466V261.304L279.072 278.73Z" fill="#FFF2C1"/>
<path opacity="0.5" d="M279.072 278.73V243.893L248.808 226.466V261.304L279.072 278.73Z" fill="white"/>
<path d="M254.858 257.828L254.873 229.958L248.808 226.466V261.304L254.858 257.828Z" fill="#211C1C"/>
<path d="M279.072 271.763V278.73L248.808 261.304L254.858 257.828L279.072 271.763Z" fill="#211C1C"/>
<path d="M366.839 374.537V339.7L397.102 322.288V357.126L366.839 374.537Z" fill="#FFF2C1"/>
<path d="M391.052 353.635V325.765L397.102 322.288V357.126L391.052 353.635Z" fill="#211C1C"/>
<path d="M366.839 367.57V374.537L397.102 357.126L391.053 353.635L366.839 367.57Z" fill="#211C1C"/>
<path d="M366.839 316.48V281.642L397.102 264.216V299.053L366.839 316.48Z" fill="#FFF2C1"/>
<path d="M391.052 295.577V267.692L397.102 264.216V299.053L391.052 295.577Z" fill="#211C1C"/>
<path d="M366.839 309.512V316.48L397.102 299.053L391.053 295.577L366.839 309.512Z" fill="#211C1C"/>
<path d="M366.839 258.407V223.57L397.102 206.144V240.981L366.839 258.407Z" fill="#FFF2C1"/>
<path d="M391.052 237.505V209.635L397.102 206.144V240.981L391.052 237.505Z" fill="#211C1C"/>
<path d="M366.839 251.44V258.407L397.102 240.981L391.053 237.505L366.839 251.44Z" fill="#211C1C"/>
<path d="M366.839 200.335V165.497L397.102 148.071V182.923L366.839 200.335Z" fill="#FFF2C1"/>
<path d="M391.052 179.432V151.562L397.102 148.071V182.923L391.052 179.432Z" fill="#211C1C"/>
<path d="M366.839 193.367V200.335L397.102 182.923L391.053 179.432L366.839 193.367Z" fill="#211C1C"/>
<path d="M409.873 349.772V314.935L440.151 297.523L440.136 332.361L409.873 349.772Z" fill="#FFF2C1"/>
<path d="M434.086 328.87V301L440.151 297.523L440.136 332.361L434.086 328.87Z" fill="#211C1C"/>
<path d="M409.873 342.819V349.772L440.136 332.361L434.087 328.87L409.873 342.819Z" fill="#211C1C"/>
<path d="M409.873 291.714V256.862L440.151 239.451L440.136 274.288L409.873 291.714Z" fill="#FFF2C1"/>
<path d="M434.086 270.812V242.927L440.151 239.451L440.136 274.288L434.086 270.812Z" fill="#211C1C"/>
<path d="M409.873 284.747V291.715L440.136 274.288L434.087 270.812L409.873 284.747Z" fill="#211C1C"/>
<path d="M409.873 233.642V198.804L440.151 181.378L440.136 216.231L409.873 233.642Z" fill="#FFF2C1"/>
<path d="M434.086 212.739V184.869L440.151 181.378L440.136 216.231L434.086 212.739Z" fill="#211C1C"/>
<path d="M409.873 226.675V233.642L440.136 216.231L434.087 212.74L409.873 226.675Z" fill="#211C1C"/>
<path d="M409.873 175.57V140.732L440.151 123.321L440.136 158.158L409.873 175.57Z" fill="#FFF2C1"/>
<path d="M434.086 154.667V126.797L440.151 123.321L440.136 158.158L434.086 154.667Z" fill="#211C1C"/>
<path d="M409.873 168.602V175.57L440.136 158.158L434.087 154.667L409.873 168.602Z" fill="#211C1C"/>
<path d="M236.709 254.337V219.499L212.495 205.564V240.402L236.709 254.337Z" fill="#FFF2C1"/>
<path opacity="0.5" d="M236.709 254.337V219.499L212.495 205.564V240.402L236.709 254.337Z" fill="white"/>
<path d="M218.545 236.925L212.495 240.402V205.564L218.545 209.055V236.925Z" fill="#211C1C"/>
<path d="M236.709 247.369L218.545 236.925L212.495 240.402L236.709 254.337V247.369Z" fill="#211C1C"/>
<path d="M248.808 320.877C248.808 311.042 255.588 306.957 263.948 311.77C272.307 316.584 279.072 328.454 279.072 338.303V397.193L248.808 379.767V320.877Z" fill="#211C1C"/>
<path d="M279.072 338.303C279.072 328.454 272.307 316.569 263.947 311.77C261.819 310.426 259.344 309.729 256.825 309.765C255.442 312.066 254.763 314.72 254.873 317.401V376.29L279.072 390.225V338.303Z" fill="#455A64"/>
<path d="M279.072 338.303C279.072 328.454 272.307 316.569 263.947 311.77C261.819 310.426 259.344 309.729 256.825 309.765C255.442 312.066 254.763 314.72 254.873 317.401V376.29L279.072 390.225V338.303Z" fill="#FFF2C1"/>
<path opacity="0.5" d="M279.072 338.303C279.072 328.454 272.307 316.569 263.947 311.77C261.819 310.426 259.344 309.729 256.825 309.765C255.442 312.066 254.763 314.72 254.873 317.401V376.29L279.072 390.225V338.303Z" fill="white"/>
<path d="M268.313 315.053C267.384 314.18 266.388 313.38 265.333 312.662V328.32L254.903 322.288V325.898L265.333 331.945V377.093L268.313 378.801V333.638L279.072 339.833V338.348C279.072 337.635 279.072 336.862 278.968 336.194L268.313 330.073V315.053Z" fill="#455A64"/>
<path d="M327.5 174.203V153.3L194.33 76.6575V97.56L327.5 174.203Z" fill="#FFF2C1"/>
<path opacity="0.5" d="M327.5 174.203V153.3L194.33 76.6575V97.56L327.5 174.203Z" fill="white"/>
<path d="M327.5 174.203V153.3L460.67 76.6575V97.56L327.5 174.203Z" fill="#FFF2C1"/>
<path opacity="0.2" d="M327.5 174.203V153.3L460.67 76.6575V97.56L327.5 174.203Z" fill="black"/>
<path d="M212.495 136.795C212.495 128.595 217.919 125.059 224.594 128.907C231.27 132.754 236.709 142.53 236.709 150.73V205.564L212.495 191.629V136.795Z" fill="#211C1C"/>
<path d="M224.594 128.891C223.154 128.031 221.531 127.522 219.856 127.406C218.934 129.249 218.484 131.29 218.544 133.348V188.182L236.709 198.582V150.715C236.709 142.515 231.285 132.739 224.594 128.891Z" fill="#FFF2C1"/>
<path opacity="0.5" d="M224.594 128.891C223.154 128.031 221.531 127.522 219.856 127.406C218.934 129.249 218.484 131.29 218.544 133.348V188.182L236.709 198.582V150.715C236.709 142.515 231.285 132.739 224.594 128.891Z" fill="white"/>
<path d="M212.495 191.629L218.545 188.138L236.709 198.582V205.564L212.495 191.629Z" fill="#211C1C"/>
<path d="M248.808 160.669C248.808 150.819 255.588 146.749 263.948 151.562C272.307 156.375 279.072 168.245 279.072 178.095V229.958L248.808 212.531V160.669Z" fill="#211C1C"/>
<path d="M279.072 178.095C279.072 168.245 272.307 156.36 263.947 151.562C261.819 150.218 259.344 149.521 256.825 149.556C255.442 151.858 254.763 154.512 254.873 157.192V209.04L279.072 222.99V178.095Z" fill="#FFF2C1"/>
<path opacity="0.5" d="M279.072 178.095C279.072 168.245 272.307 156.36 263.947 151.562C261.819 150.218 259.344 149.521 256.825 149.556C255.442 151.858 254.763 154.512 254.873 157.192V209.04L279.072 222.99V178.095Z" fill="white"/>
<path d="M254.873 209.04L248.808 212.531L279.072 229.958V222.99L254.873 209.04Z" fill="#211C1C"/>
<path d="M291.187 182.106C291.187 173.906 296.596 170.37 303.286 174.218C309.977 178.065 315.401 187.841 315.401 196.041V250.875L291.187 236.94V182.106Z" fill="#211C1C"/>
<path d="M303.286 174.203C301.845 173.344 300.222 172.835 298.547 172.717C297.623 174.559 297.173 176.601 297.236 178.66V233.494L315.4 243.893V196.026C315.4 187.826 309.976 178.051 303.286 174.203Z" fill="#FFF2C1"/>
<path opacity="0.5" d="M303.286 174.203C301.845 173.344 300.222 172.835 298.547 172.717C297.623 174.559 297.173 176.601 297.236 178.66V233.494L315.4 243.893V196.026C315.4 187.826 309.976 178.051 303.286 174.203Z" fill="white"/>
<path d="M297.236 233.434L291.187 236.925L315.401 250.86V243.893L297.236 233.434Z" fill="#211C1C"/>
<path d="M291.187 342.3C291.187 334.099 296.596 330.563 303.286 334.411C309.977 338.259 315.401 348.034 315.401 356.235V418.096L291.187 404.16V342.3Z" fill="#211C1C"/>
<path d="M303.286 334.411C301.845 333.553 300.222 333.044 298.547 332.926C297.626 334.768 297.175 336.81 297.236 338.868V400.714L315.4 411.113V356.146C315.4 348.034 309.976 338.259 303.286 334.411Z" fill="#FFF2C1"/>
<path opacity="0.5" d="M303.286 334.411C301.845 333.553 300.222 333.044 298.547 332.926C297.626 334.768 297.175 336.81 297.236 338.868V400.714L315.4 411.113V356.146C315.4 348.034 309.976 338.259 303.286 334.411Z" fill="white"/>
<path d="M291.187 404.16V383.258L315.401 397.193V418.095L291.187 404.16Z" fill="#37474F"/>
<path d="M291.187 383.258L297.236 379.767L315.386 390.226L315.401 397.193L291.187 383.258Z" fill="#211C1C"/>
<path d="M212.495 297.003C212.495 288.803 217.919 285.267 224.594 289.115C231.27 292.962 236.709 302.738 236.709 310.938V372.799L212.495 358.894V297.003Z" fill="#211C1C"/>
<path d="M224.594 289.07C223.151 288.216 221.529 287.708 219.856 287.584C218.934 289.427 218.484 291.469 218.544 293.527V355.388L236.709 365.787V310.819C236.709 302.723 231.285 292.948 224.594 289.07Z" fill="#FFF2C1"/>
<path opacity="0.5" d="M224.594 289.07C223.151 288.216 221.529 287.708 219.856 287.584C218.934 289.427 218.484 291.469 218.544 293.527V355.388L236.709 365.787V310.819C236.709 302.723 231.285 292.948 224.594 289.07Z" fill="white"/>
<path d="M236.709 372.799V351.896L212.495 337.961V358.864L236.709 372.799Z" fill="#37474F"/>
<path d="M212.495 337.962L218.545 334.47L236.709 344.929V351.897L212.495 337.962Z" fill="#211C1C"/>
<path d="M248.808 379.767V372.799L279.072 390.225V397.193L248.808 379.767Z" fill="#37474F"/>
<path d="M248.808 372.799L254.873 369.323L279.072 383.258V390.225L248.808 372.799Z" fill="#211C1C"/>
<path d="M327.5 153.3L460.669 76.6575L327.5 0L194.33 76.6575L327.5 153.3Z" fill="#FFF2C1"/>
<path opacity="0.7" d="M327.5 153.3L460.669 76.6575L327.5 0L194.33 76.6575L327.5 153.3Z" fill="white"/>
<path d="M327.5 139.365L436.456 76.6576L327.5 13.9351L218.544 76.6576L327.5 139.365Z" fill="#FFF2C1"/>
<path d="M327.5 13.9351V34.8525L236.709 87.1014L218.544 76.6576L327.5 13.9351Z" fill="#FFF2C1"/>
<path opacity="0.2" d="M327.5 13.9351V34.8525L236.709 87.1014L218.544 76.6576L327.5 13.9351Z" fill="black"/>
<path d="M327.5 13.9351L436.456 76.6576L418.292 87.1014L327.5 34.8525V13.9351Z" fill="#FFF2C1"/>
<path opacity="0.5" d="M327.5 13.9351L436.456 76.6576L418.292 87.1014L327.5 34.8525V13.9351Z" fill="white"/>
<path d="M309.336 31.3613L279.072 48.7875L321.45 73.1664L351.714 55.7551L309.336 31.3613Z" fill="#455A64"/>
<path d="M279.072 48.7874V69.6899L321.45 94.0688V73.1662L279.072 48.7874Z" fill="#37474F"/>
<path d="M351.714 55.7551V76.6577L321.45 94.069V73.1665L351.714 55.7551Z" fill="#211C1C"/>
<path d="M299.397 43.053C293.899 46.2173 293.899 51.3427 299.397 54.507C302.479 56.0677 305.887 56.881 309.343 56.881C312.8 56.881 316.208 56.0677 319.29 54.507C324.773 51.3427 324.773 46.2173 319.29 43.053C316.208 41.4923 312.8 40.679 309.343 40.679C305.887 40.679 302.479 41.4923 299.397 43.053Z" fill="#37474F"/>
<path d="M304.687 46.3213C302.109 47.6732 302.109 49.8868 304.687 51.2387C306.146 51.9141 307.735 52.264 309.343 52.264C310.952 52.264 312.541 51.9141 314 51.2387C316.563 49.8868 316.563 47.6732 314 46.3213C312.541 45.6459 310.952 45.296 309.343 45.296C307.735 45.296 306.146 45.6459 304.687 46.3213Z" fill="#211C1C"/>
<path d="M330.808 74.7411L336.858 78.2174V92.1673" stroke="#455A64" stroke-width="2" stroke-linecap="round" stroke-linejoin="round"/>
<path d="M339.599 69.6899L345.649 73.1663V87.1013" stroke="#455A64" stroke-width="2" stroke-linecap="round" stroke-linejoin="round"/>
<path d="M152.444 279.681V327.696C152.473 328.038 152.593 328.366 152.792 328.645C152.991 328.925 153.262 329.146 153.576 329.286C154.436 329.718 155.385 329.943 156.348 329.943C157.311 329.943 158.26 329.718 159.119 329.286C159.434 329.146 159.704 328.925 159.904 328.645C160.103 328.366 160.223 328.038 160.252 327.696V279.711L152.444 279.681Z" fill="#37474F"/>
<path d="M175.153 293.646C175.153 298.618 173.172 303.387 169.645 306.903C166.118 310.419 161.335 312.394 156.348 312.394C151.361 312.394 146.577 310.419 143.051 306.903C139.524 303.387 137.543 298.618 137.543 293.646C137.543 274.482 145.962 253.534 156.348 253.534C166.734 253.534 175.153 274.214 175.153 293.646Z" fill="#FFF2C1"/>
<path d="M175.153 293.646C175.153 293.156 175.153 292.666 175.153 292.16V291.67C175.008 293.713 174.208 295.655 172.873 297.212C169.312 301.668 161.459 306.511 153.353 303.154C139.734 297.464 139.361 281.405 142.386 268.108C139.21 276.256 137.578 284.92 137.573 293.661C137.573 298.633 139.554 303.402 143.081 306.918C146.607 310.434 151.391 312.409 156.378 312.409C161.365 312.409 166.148 310.434 169.675 306.918C173.202 303.402 175.183 298.633 175.183 293.661L175.153 293.646Z" fill="#FFF2C1"/>
<path opacity="0.1" d="M175.153 293.646C175.153 293.156 175.153 292.666 175.153 292.16V291.67C175.008 293.713 174.208 295.655 172.873 297.212C169.312 301.668 161.459 306.511 153.353 303.154C139.734 297.464 139.361 281.405 142.386 268.108C139.21 276.256 137.578 284.92 137.573 293.661C137.573 298.633 139.554 303.402 143.081 306.918C146.607 310.434 151.391 312.409 156.378 312.409C161.365 312.409 166.148 310.434 169.675 306.918C173.202 303.402 175.183 298.633 175.183 293.661L175.153 293.646Z" fill="black"/>
<path d="M14.8933 195.477V243.477C14.9242 243.828 15.05 244.163 15.2573 244.449C15.4646 244.734 15.7457 244.958 16.0705 245.096C16.9274 245.528 17.8743 245.753 18.8346 245.753C19.7949 245.753 20.7418 245.528 21.5987 245.096C21.9138 244.956 22.186 244.735 22.3876 244.456C22.5891 244.176 22.7128 243.849 22.7461 243.506V195.477H14.8933Z" fill="#37474F"/>
<path d="M37.6025 209.486C37.6733 211.992 37.2394 214.486 36.3265 216.821C35.4137 219.157 34.0404 221.286 32.2879 223.083C30.5354 224.88 28.4393 226.309 26.1234 227.284C23.8076 228.26 21.319 228.762 18.805 228.762C16.2909 228.762 13.8024 228.26 11.4865 227.284C9.17068 226.309 7.07452 224.88 5.32201 223.083C3.56951 221.286 2.19623 219.157 1.28339 216.821C0.370555 214.486 -0.0633113 211.992 0.00745093 209.486C0.00745093 190.322 8.42648 169.375 18.7975 169.375C29.1686 169.375 37.6025 190.01 37.6025 209.486Z" fill="#FFF2C1"/>
<path d="M640.106 195.477V243.477C640.073 243.819 639.949 244.147 639.748 244.426C639.546 244.705 639.274 244.926 638.959 245.066C638.102 245.498 637.155 245.724 636.195 245.724C635.235 245.724 634.288 245.498 633.431 245.066C633.116 244.926 632.844 244.705 632.642 244.426C632.44 244.147 632.317 243.819 632.283 243.477V195.477H640.106Z" fill="#37474F"/>
<path d="M617.398 209.486C617.327 211.992 617.761 214.486 618.674 216.821C619.586 219.157 620.96 221.286 622.712 223.083C624.465 224.88 626.561 226.309 628.877 227.284C631.193 228.26 633.681 228.762 636.195 228.762C638.709 228.762 641.198 228.26 643.514 227.284C645.829 226.309 647.926 224.88 649.678 223.083C651.431 221.286 652.804 219.157 653.717 216.821C654.63 214.486 655.063 211.992 654.993 209.486C654.993 190.322 646.574 169.375 636.203 169.375C625.832 169.375 617.398 190.01 617.398 209.486Z" fill="#FFF2C1"/>
<path d="M536.113 331.41H549.181V317.045C549.181 316.189 549.012 315.341 548.683 314.551C548.354 313.761 547.872 313.043 547.264 312.438C546.656 311.834 545.935 311.355 545.142 311.029C544.348 310.703 543.498 310.536 542.639 310.538C540.908 310.538 539.248 311.223 538.024 312.443C536.8 313.664 536.113 315.319 536.113 317.045V331.41Z" fill="#FFF2C1"/>
<g opacity="0.5">
<path d="M536.113 331.41H549.181V317.045C549.181 316.189 549.012 315.341 548.683 314.551C548.354 313.761 547.872 313.043 547.264 312.438C546.656 311.834 545.935 311.355 545.142 311.029C544.348 310.703 543.498 310.536 542.639 310.538C540.908 310.538 539.248 311.223 538.024 312.443C536.8 313.664 536.113 315.319 536.113 317.045V331.41Z" fill="black"/>
</g>
<path d="M537.856 336.194C538.735 331.826 540.389 327.013 540.3 324.844L539.019 324.918C538.258 324.969 537.537 325.276 536.974 325.789C536.411 326.302 536.039 326.99 535.919 327.741C535.457 330.578 534.757 334.916 534.429 336.654C534.136 338.875 533.637 341.063 532.939 343.191C532.819 343.498 532.591 343.751 532.298 343.904C531.663 344.279 531.089 344.75 530.599 345.301C530.123 345.717 529.75 345.806 529.795 345.954C529.867 346.119 530 346.251 530.166 346.323C530.332 346.394 530.518 346.401 530.689 346.341C531.07 346.223 531.436 346.058 531.777 345.85C531.472 346.504 531.059 347.102 530.555 347.618C529.422 348.807 529.318 349.579 531.419 349.757C532.73 349.861 533.833 349.133 535.04 346.341C535.501 345.314 535.889 344.257 536.202 343.176C537.007 340.398 537.514 337.917 537.856 336.194Z" fill="#FFA8A7"/>
<path d="M557.198 373.75C557.689 373.483 558.017 374.121 558.464 374.627C558.852 375 559.156 375.451 559.358 375.949C559.343 376.349 559.241 376.742 559.062 377.101C558.882 377.459 558.627 377.776 558.315 378.029C557.569 378.485 557.034 379.216 556.825 380.064C556.769 380.587 556.565 381.083 556.238 381.496C555.911 381.908 555.474 382.22 554.977 382.396C554.399 382.637 553.779 382.761 553.152 382.761C552.525 382.761 551.905 382.637 551.327 382.396C550.626 381.951 551.327 381.445 552.251 380.049C553.532 378.222 554.53 376.914 554.53 375.206L557.198 373.75Z" fill="#211C1C"/>
<path d="M556.17 372.175L557.213 373.661C557.436 373.979 557.525 374.372 557.461 374.756C557.397 375.139 557.185 375.482 556.87 375.711C556.552 375.904 556.175 375.978 555.807 375.921C555.439 375.864 555.103 375.679 554.858 375.399L553.219 373.601L556.17 372.175Z" fill="#FFA8A7"/>
<path d="M536.113 344.275C536.265 348.212 537.008 352.102 538.318 355.819C539.106 357.952 540.104 360.003 541.298 361.939C541.73 362.682 554.054 374.641 554.054 374.641C554.642 374.593 555.199 374.353 555.638 373.958C556.077 373.564 556.373 373.037 556.482 372.458C556.482 372.458 551.431 363.9 550.328 362.147C548.887 360.442 547.218 358.942 545.366 357.691L545.724 342.329L536.113 344.275Z" fill="#37474F"/>
<path d="M540.414 380.138L537.813 379.548L536.951 383.329L539.552 383.919L540.414 380.138Z" fill="#FFA8A7"/>
<path d="M538.318 342.136L549.405 342.567C550.159 344.202 550.482 346.002 550.343 347.796C549.971 353.189 544.845 362.831 544.845 362.831C545.084 365.013 544.974 367.22 544.517 369.367C543.352 373.299 541.979 377.167 540.405 380.955C539.901 381.031 539.388 380.998 538.899 380.857C538.41 380.716 537.958 380.47 537.573 380.138C537.573 380.138 539.242 365.356 539.689 361.568C540.181 357.468 541.433 349.98 541.433 349.98C540.603 349.163 539.854 348.268 539.198 347.306C538.035 345.839 537.438 344.005 537.514 342.136" fill="#37474F"/>
<path d="M553.636 339.225C553.26 335.416 552.643 331.635 551.789 327.904C551.687 327.289 551.386 326.725 550.93 326.298C550.475 325.871 549.892 325.605 549.27 325.542C545.649 327.488 545.679 330.073 548.764 333.193C548.764 333.193 550.045 338.214 550.447 340.621C550.869 342.819 551.068 345.054 551.044 347.291C551.026 347.619 550.881 347.928 550.641 348.153C550.147 348.699 549.735 349.315 549.419 349.98C549.091 350.515 548.749 350.708 548.838 350.842C548.955 350.98 549.119 351.07 549.299 351.092C549.479 351.114 549.66 351.067 549.807 350.961C550.137 350.738 550.438 350.473 550.701 350.173C550.598 350.882 550.382 351.569 550.06 352.209C549.315 353.694 549.434 354.452 551.55 354.021C552.832 353.754 553.681 352.729 554.024 349.698C554.175 348.58 554.245 347.453 554.232 346.326C553.994 343.488 553.815 340.978 553.636 339.225Z" fill="#FFA8A7"/>
<path d="M537.231 382.055L537.305 381.683C537.037 381.683 535.815 383.674 534.698 384.521C533.58 385.368 532.328 386.006 531.717 386.393C531.106 386.779 532.06 388.086 533.923 388.19C535.019 388.254 536.111 388.001 537.067 387.462C537.588 386.972 537.961 386.155 538.378 385.798C538.795 385.442 539.63 385.145 539.868 384.684C540.023 384.236 540.074 383.759 540.017 383.288C540.017 382.798 540.017 382.263 539.823 382.278V382.56C539.329 382.805 538.781 382.923 538.229 382.902C537.827 382.887 537.007 382.783 537.231 382.055Z" fill="#211C1C"/>
<path d="M540.017 359.057C540.017 359.057 541.135 351.199 541.433 349.98C540.542 349.494 539.712 348.906 538.959 348.227C539.475 348.96 540.038 349.66 540.643 350.322L540.017 359.057Z" fill="#211C1C"/>
<path d="M546.708 358.79C546.172 360.175 545.55 361.524 544.845 362.831C544.845 362.831 544.979 365.356 544.964 365.802L545.665 366.411C545.682 365.269 545.577 364.129 545.352 363.009C545.957 361.656 546.412 360.242 546.708 358.79Z" fill="#211C1C"/>
<path d="M545.366 324.903C546.678 325.051 547.981 325.264 549.27 325.542C545.664 328.068 548.764 333.193 548.764 333.193L546.842 338.497C548.133 340.185 549.181 342.045 549.956 344.023C548.943 345.182 542.923 348.688 536.053 344.276C536.053 344.276 536.456 340.413 537.022 337.501C536.038 332.777 535.755 331.113 536.053 329.999C536.858 326.879 538.706 324.888 540.822 324.77L545.366 324.903Z" fill="#F5F5F5"/>
<path d="M538.318 313.167C537.633 313.568 536.828 315.306 536.828 318.931C536.903 322.006 537.901 322.764 538.408 322.987C539.202 323.152 540.024 323.127 540.807 322.913V324.725C540.807 324.725 539.511 326.211 539.6 327.087C539.689 327.964 541.477 328.127 542.684 327.31C543.568 326.626 544.329 325.797 544.934 324.859V320.625C544.934 320.625 545.501 321.16 546.425 320.342C546.802 320.073 547.059 319.668 547.139 319.212C547.22 318.757 547.119 318.288 546.857 317.906C546.699 317.76 546.509 317.653 546.302 317.594C546.095 317.535 545.877 317.527 545.665 317.569C545.454 317.611 545.256 317.702 545.088 317.836C544.919 317.97 544.785 318.141 544.696 318.337C543.465 318.288 542.265 317.93 541.209 317.297C540.436 316.883 539.771 316.294 539.269 315.576C538.767 314.859 538.441 314.033 538.318 313.167Z" fill="#FFA8A7"/>
<path d="M540.3 318.158C540.3 318.261 540.34 318.359 540.413 318.431C540.486 318.504 540.584 318.545 540.687 318.545C540.79 318.545 540.888 318.504 540.961 318.431C541.033 318.359 541.074 318.261 541.074 318.158C541.078 318.106 541.072 318.053 541.055 318.002C541.039 317.952 541.012 317.906 540.978 317.866C540.943 317.826 540.901 317.793 540.854 317.769C540.806 317.745 540.755 317.731 540.702 317.728C540.646 317.727 540.591 317.739 540.541 317.761C540.49 317.783 540.444 317.815 540.406 317.855C540.369 317.896 540.34 317.944 540.321 317.996C540.303 318.048 540.296 318.103 540.3 318.158Z" fill="#211C1C"/>
<path d="M540.195 320.773L539.302 321.055C539.317 321.115 539.344 321.172 539.382 321.221C539.42 321.271 539.468 321.312 539.522 321.342C539.576 321.373 539.636 321.392 539.698 321.399C539.76 321.406 539.823 321.4 539.882 321.382C540.004 321.341 540.104 321.255 540.163 321.141C540.221 321.027 540.233 320.895 540.195 320.773Z" fill="#F28F8F"/>
<path d="M537.126 316.97L537.9 316.435C537.869 316.383 537.826 316.337 537.776 316.302C537.726 316.266 537.669 316.242 537.609 316.229C537.549 316.217 537.487 316.217 537.427 316.229C537.367 316.241 537.31 316.266 537.26 316.301C537.207 316.336 537.161 316.381 537.125 316.433C537.089 316.486 537.064 316.545 537.051 316.607C537.039 316.67 537.039 316.734 537.052 316.796C537.065 316.858 537.09 316.918 537.126 316.97Z" fill="#211C1C"/>
<path d="M537.305 317.876C537.301 317.929 537.308 317.982 537.324 318.032C537.341 318.082 537.367 318.129 537.402 318.169C537.436 318.209 537.478 318.242 537.526 318.266C537.573 318.289 537.625 318.303 537.677 318.307C537.781 318.307 537.882 318.267 537.957 318.195C538.031 318.123 538.076 318.025 538.079 317.921C538.079 317.87 538.069 317.82 538.05 317.773C538.03 317.726 538.002 317.684 537.966 317.648C537.93 317.612 537.887 317.583 537.84 317.564C537.793 317.545 537.743 317.535 537.692 317.535C537.641 317.535 537.591 317.545 537.544 317.564C537.497 317.583 537.455 317.612 537.419 317.648C537.383 317.684 537.354 317.726 537.335 317.773C537.315 317.82 537.305 317.87 537.305 317.921V317.876Z" fill="#211C1C"/>
<path d="M539.137 317.653L539.078 319.986L537.842 319.614L539.137 317.653Z" fill="#F28F8F"/>
<path d="M540.836 322.912C541.835 322.794 543.817 322.199 544.189 321.427C544.063 321.834 543.813 322.192 543.474 322.452C542.648 322.937 541.761 323.312 540.836 323.566V322.912Z" fill="#F28F8F"/>
<path d="M547.87 335.674L545.158 339.343L546.827 338.496L547.87 335.674Z" fill="#E0E0E0"/>
<path d="M417.755 399.377C418.423 395.682 418.613 391.918 418.321 388.175C418.314 388.087 418.279 388.004 418.221 387.937C418.163 387.87 418.085 387.823 417.999 387.804C417.913 387.784 417.822 387.792 417.741 387.827C417.66 387.861 417.591 387.921 417.546 387.997L414.67 393.315C414.67 393.315 414.328 397.208 413.97 399.867C413.708 402.292 413.209 404.685 412.48 407.013C412.351 407.344 412.108 407.618 411.795 407.785C411.104 408.186 410.476 408.687 409.932 409.271C409.425 409.731 409.008 409.821 409.068 409.984C409.144 410.165 409.287 410.311 409.466 410.391C409.646 410.471 409.85 410.479 410.036 410.415C410.45 410.288 410.846 410.108 411.213 409.88C410.886 410.587 410.443 411.235 409.902 411.796C408.665 413.089 408.561 413.921 410.826 414.114C412.242 414.233 413.449 413.446 414.76 410.4C415.263 409.287 415.686 408.141 416.026 406.968C416.906 403.938 417.382 401.234 417.755 399.377Z" fill="#B16668"/>
<path d="M431.211 441.568C431.211 441.568 431.389 441.568 431.941 441.91C432.567 442.299 433.113 442.803 433.55 443.395C433.609 443.826 433.576 444.265 433.453 444.682C433.33 445.1 433.119 445.487 432.835 445.817C432.275 446.657 431.979 447.645 431.985 448.654C431.938 449.305 431.754 449.938 431.446 450.514C431.138 451.09 430.713 451.595 430.197 451.997C429.273 452.636 428.141 453.289 427.619 453.126C427.098 452.963 427.068 452.324 427.724 449.501C428.271 447.64 428.66 445.737 428.886 443.811L431.211 441.568Z" fill="#211C1C"/>
<path d="M430.808 441.033L431.419 441.85C431.515 441.975 431.583 442.12 431.616 442.274C431.65 442.428 431.648 442.588 431.613 442.742C431.522 443.293 431.236 443.793 430.808 444.153C430.564 444.335 430.263 444.425 429.959 444.406C429.749 444.39 429.545 444.33 429.36 444.23C429.175 444.13 429.014 443.993 428.886 443.826L428.409 443.187L430.808 441.033Z" fill="#B16668"/>
<path d="M415.982 405.809L422.866 412.673H422.672L421.093 425.093C422.341 425.936 423.406 427.022 424.222 428.287C425.533 430.307 430.749 441.033 430.749 441.033C430.749 441.033 430.138 443.425 428.349 443.187C428.349 443.187 425.578 439.741 422.598 435.967C419.334 431.822 415.728 427.336 415.535 426.519C414.536 422.062 415.982 405.809 415.982 405.809Z" fill="#455A64"/>
<path d="M424.356 428.287C425.667 430.307 430.882 441.033 430.882 441.033C430.882 441.033 430.272 443.425 428.483 443.187C428.483 443.187 425.712 439.741 422.732 435.967L424.356 428.287Z" fill="#37474F"/>
<path d="M423.805 448.684C423.034 447.931 422.167 447.282 421.227 446.753C420.771 446.723 420.313 446.723 419.856 446.753C419.445 446.753 419.035 446.708 418.634 446.619C417.812 446.322 417.014 445.959 416.25 445.535C415.925 445.337 415.574 445.187 415.207 445.089C414.566 444.97 414.06 444.955 413.836 445.668C413.767 445.884 413.741 446.111 413.762 446.337C413.753 446.998 413.903 447.651 414.199 448.243C414.494 448.834 414.926 449.347 415.46 449.739C415.952 450.066 416.608 450.318 417.129 450.615C417.923 450.943 418.686 451.341 419.409 451.804C420.482 452.725 421.48 453.631 422.985 453.037C423.285 452.952 423.558 452.793 423.779 452.575C424.001 452.357 424.163 452.087 424.252 451.789C424.46 451.002 423.715 449.516 423.805 448.684Z" fill="#211C1C"/>
<path d="M416.056 404.74L430.808 406.225C431.21 410.47 430.842 414.753 429.721 418.868C428.529 424.201 427.202 429.802 427.202 429.802C427.839 431.863 427.885 434.06 427.336 436.146C426.189 439.874 424.058 449.783 424.058 449.783C423.38 448.358 422.188 447.239 420.72 446.649C420.72 446.649 421.257 441.434 421.585 437.661C421.913 433.887 422.106 430.738 422.225 428.406C422.419 424.692 422.956 412.614 422.956 412.614H422.762C422.762 412.614 416.965 409.88 416.012 405.75L416.056 404.74Z" fill="#455A64"/>
<path d="M422.866 412.673C421.199 411.902 419.65 410.902 418.261 409.702L421.853 413.044L421.197 424.231L422.866 412.673Z" fill="#37474F"/>
<path d="M421.465 386.541C419.275 386.541 416.653 387.239 415.609 389.245C414.679 391.792 414.054 394.44 413.747 397.133C413.747 397.133 414.566 398.901 417.636 398.693L421.465 386.541Z" fill="#211C1C"/>
<path d="M435.696 402.66C435.085 396.376 432.805 391.785 432.537 390.21L430.689 397.98C431.301 400.031 431.799 402.114 432.179 404.22C432.632 406.615 432.852 409.047 432.835 411.484C432.807 411.838 432.654 412.17 432.402 412.42C431.856 413.006 431.403 413.672 431.061 414.396C430.704 414.99 430.331 415.184 430.436 415.332C430.561 415.481 430.738 415.578 430.931 415.602C431.124 415.627 431.32 415.578 431.479 415.466C431.839 415.224 432.17 414.94 432.462 414.619C432.361 415.386 432.139 416.133 431.806 416.833C431.002 418.422 431.136 419.269 433.297 418.794C434.697 418.497 435.621 417.397 435.994 414.099C436.151 412.887 436.225 411.666 436.217 410.445C436.128 407.28 435.874 404.547 435.696 402.66Z" fill="#B16668"/>
<path d="M425.95 386.675C428.543 387.299 432.09 388.16 433.118 390.924C433.971 393.598 434.683 396.316 435.249 399.065C434.682 399.611 433.993 400.013 433.238 400.238C432.484 400.463 431.686 400.504 430.912 400.357L430.316 398.263L430.808 406.27C428.782 408.484 420.377 409.048 415.982 405.809C415.982 405.809 416.742 393.925 416.742 391.711C416.699 391.06 416.789 390.406 417.006 389.79C417.222 389.174 417.561 388.608 418.002 388.126C418.443 387.643 418.977 387.254 419.572 386.982C420.167 386.71 420.811 386.56 421.465 386.541L425.95 386.675Z" fill="#37474F"/>
<path d="M430.316 398.262L429.005 394.162L430.436 400.298L430.316 398.262Z" fill="#211C1C"/>
<path d="M426.919 375.146C427.152 375.121 427.388 375.148 427.61 375.225C427.832 375.302 428.033 375.428 428.2 375.592C428.752 376.157 428.633 377.197 428.2 379.574L426.502 379.767L426.919 375.146Z" fill="#211C1C"/>
<path d="M417.025 374.463C416.656 374.464 416.29 374.388 415.952 374.24C415.431 373.943 415.296 374.537 415.58 375.042C415.769 375.412 416.051 375.727 416.398 375.956C416.745 376.185 417.146 376.321 417.561 376.35L418.038 375.028L417.025 374.463Z" fill="#211C1C"/>
<path d="M426.129 379.767C426.382 379.915 426.74 379.44 427.053 379.113C427.174 378.972 427.33 378.864 427.505 378.801C427.68 378.737 427.869 378.719 428.053 378.749C428.237 378.779 428.41 378.855 428.556 378.971C428.702 379.087 428.816 379.238 428.886 379.41C429.392 380.495 428.215 381.936 427.53 382.381C427.339 382.547 427.101 382.647 426.849 382.669C426.597 382.69 426.345 382.631 426.129 382.5L425.95 386.645C425.642 387.308 425.175 387.885 424.59 388.325C424.006 388.766 423.321 389.056 422.598 389.171C420.154 389.512 420.661 387.507 421.465 386.511V385.026C420.858 385.157 420.234 385.187 419.617 385.115C418.91 384.604 418.362 383.903 418.038 383.095C416.995 381.04 416.767 378.669 417.397 376.454C418.261 372.74 422.27 372.621 424.654 374.121C427.038 375.622 426.129 379.767 426.129 379.767Z" fill="#B16668"/>
<path d="M426.129 380.198C426.248 380.198 426.725 379.395 427.053 379.113C427.381 378.831 426.919 375.146 426.919 375.146C427.041 374.765 427.067 374.359 426.994 373.965C426.921 373.571 426.752 373.202 426.502 372.888C425.637 371.997 423.983 372.146 422.762 372.101C421.268 372.111 419.787 371.818 418.41 371.239C416.682 370.482 416.548 370.392 416.339 371.15C416.17 371.774 416.148 372.429 416.274 373.063C416.401 373.697 416.673 374.293 417.069 374.805L417.636 375.726C418.282 376.109 419.015 376.324 419.766 376.35C421.362 376.339 422.948 376.099 424.475 375.637C424.937 375.637 425.041 376.023 425.295 377.271C425.548 378.519 425.697 380.183 426.129 380.198Z" fill="#211C1C"/>
<path d="M426.919 375.429L428.409 374.612C428.362 374.509 428.294 374.417 428.209 374.342C428.125 374.266 428.026 374.209 427.919 374.173C427.811 374.137 427.698 374.123 427.585 374.132C427.472 374.141 427.362 374.173 427.262 374.225C427.061 374.344 426.913 374.535 426.849 374.759C426.785 374.983 426.81 375.223 426.919 375.429Z" fill="#211C1C"/>
<path d="M421.465 385.04C422.508 384.84 423.53 384.547 424.52 384.164C424.982 383.925 425.362 383.552 425.608 383.094C425.489 383.551 425.282 383.98 424.997 384.357C424.415 385.1 421.465 385.635 421.465 385.635V385.04Z" fill="#9A4A4D"/>
<path d="M421.376 379.692C421.376 379.814 421.424 379.931 421.511 380.018C421.597 380.104 421.715 380.153 421.837 380.153C421.947 380.133 422.047 380.075 422.119 379.99C422.191 379.904 422.23 379.796 422.23 379.685C422.23 379.573 422.191 379.465 422.119 379.38C422.047 379.294 421.947 379.236 421.837 379.217C421.775 379.217 421.714 379.229 421.657 379.253C421.6 379.277 421.549 379.313 421.506 379.357C421.462 379.401 421.429 379.454 421.406 379.511C421.384 379.569 421.374 379.63 421.376 379.692Z" fill="#211C1C"/>
<path d="M421.882 377.984L422.85 378.519C422.915 378.384 422.927 378.229 422.883 378.086C422.839 377.943 422.742 377.821 422.612 377.746C422.549 377.711 422.479 377.689 422.407 377.682C422.336 377.675 422.263 377.683 422.195 377.705C422.126 377.727 422.063 377.764 422.009 377.812C421.955 377.86 421.912 377.918 421.882 377.984Z" fill="#211C1C"/>
<path d="M421.673 382.664L420.631 383.05C420.681 383.189 420.784 383.302 420.918 383.366C421.052 383.43 421.205 383.439 421.345 383.392C421.483 383.335 421.594 383.228 421.655 383.093C421.716 382.957 421.722 382.804 421.673 382.664Z" fill="#9A4A4D"/>
<path d="M417.353 378.356L418.246 377.687C418.204 377.626 418.151 377.575 418.089 377.536C418.027 377.497 417.957 377.471 417.885 377.46C417.812 377.449 417.738 377.453 417.667 377.471C417.596 377.49 417.529 377.523 417.472 377.568C417.355 377.659 417.277 377.792 417.255 377.938C417.233 378.085 417.268 378.234 417.353 378.356Z" fill="#211C1C"/>
<path d="M417.636 379.559C417.636 379.677 417.683 379.79 417.766 379.874C417.85 379.958 417.964 380.005 418.082 380.005C418.201 380.005 418.314 379.958 418.398 379.874C418.482 379.79 418.529 379.677 418.529 379.559C418.531 379.498 418.521 379.438 418.5 379.381C418.478 379.325 418.446 379.273 418.404 379.229C418.363 379.185 418.313 379.149 418.258 379.124C418.202 379.099 418.143 379.085 418.082 379.083C418.022 379.085 417.962 379.099 417.907 379.124C417.851 379.149 417.802 379.185 417.76 379.229C417.719 379.273 417.686 379.325 417.665 379.381C417.644 379.438 417.634 379.498 417.636 379.559Z" fill="#211C1C"/>
<path d="M419.767 379.499L420.184 382.188L418.694 382.01L419.767 379.499Z" fill="#9A4A4D"/>
<path d="M206.489 374.626C204.608 374.626 202.804 373.881 201.474 372.555C200.144 371.229 199.396 369.43 199.396 367.555V367.258C199.396 365.682 200.024 364.17 201.142 363.056C202.26 361.942 203.776 361.315 205.357 361.315H207.517C209.098 361.315 210.614 361.942 211.732 363.056C212.85 364.17 213.478 365.682 213.478 367.258V367.555C213.478 369.413 212.745 371.196 211.437 372.519C210.13 373.842 208.352 374.599 206.489 374.626Z" fill="#211C1C"/>
<path d="M211.75 389.126C210.811 384.387 209.008 379.158 209.097 376.795L210.483 376.885C211.311 376.938 212.097 377.269 212.711 377.825C213.325 378.381 213.733 379.128 213.866 379.945C214.357 383.035 215.117 387.744 215.356 389.676C215.666 392.087 216.2 394.464 216.95 396.777C217.078 397.109 217.329 397.38 217.651 397.535C218.331 397.945 218.952 398.444 219.498 399.02C220.005 399.481 220.422 399.57 220.363 399.733C220.286 399.914 220.144 400.06 219.964 400.14C219.784 400.22 219.58 400.229 219.394 400.164C218.983 400.031 218.588 399.851 218.217 399.629C218.544 400.336 218.987 400.984 219.528 401.546C220.765 402.838 220.869 403.67 218.604 403.863C217.114 403.982 215.982 403.195 214.67 400.149C214.167 399.037 213.744 397.89 213.404 396.717C212.674 393.687 212.122 390.998 211.75 389.126Z" fill="#B16668"/>
<path d="M208.516 376.722C209.829 376.596 211.152 376.805 212.361 377.331C212.85 377.613 213.26 378.015 213.552 378.498C213.843 378.981 214.008 379.53 214.03 380.094C214.313 381.49 214.775 385.16 214.775 385.16C214.775 385.16 214 386.853 210.558 386.155L208.516 376.722Z" fill="#211C1C"/>
<path d="M198.696 431.333C198.696 431.333 198.518 431.332 197.966 431.674C197.34 432.063 196.794 432.567 196.357 433.16C196.299 433.591 196.332 434.029 196.455 434.447C196.579 434.864 196.789 435.251 197.072 435.581C197.633 436.422 197.928 437.41 197.922 438.419C197.97 439.07 198.153 439.703 198.461 440.279C198.769 440.854 199.194 441.359 199.71 441.761C200.634 442.4 201.781 443.054 202.288 442.891C202.794 442.727 202.839 442.088 202.183 439.266C201.636 437.405 201.247 435.502 201.021 433.576L198.696 431.333Z" fill="#211C1C"/>
<path d="M199.099 430.797L198.488 431.614C198.392 431.74 198.325 431.884 198.291 432.039C198.258 432.193 198.259 432.352 198.294 432.506C198.386 433.057 198.671 433.557 199.099 433.917C199.343 434.099 199.644 434.189 199.948 434.17C200.158 434.154 200.362 434.094 200.547 433.995C200.732 433.895 200.894 433.757 201.021 433.59L201.498 432.952L199.099 430.797Z" fill="#B16668"/>
<path d="M213.583 395.812L210.021 397.149L207.041 402.437H207.235L208.815 414.857C207.566 415.7 206.501 416.787 205.685 418.051C204.374 420.072 199.159 430.798 199.159 430.798C199.159 430.798 199.77 433.189 201.558 432.952C201.558 432.952 204.329 429.505 207.309 425.732C209.851 422.726 212.21 419.571 214.373 416.283C215.743 411.47 213.583 395.812 213.583 395.812Z" fill="#FFF2C1"/>
<path d="M205.625 418.051C204.314 420.071 199.099 430.797 199.099 430.797C199.099 430.797 199.71 433.189 201.498 432.951C201.498 432.951 204.269 429.505 207.249 425.731L205.625 418.051Z" fill="#FFF2C1"/>
<path opacity="0.2" d="M205.625 418.051C204.314 420.071 199.099 430.797 199.099 430.797C199.099 430.797 199.71 433.189 201.498 432.951C201.498 432.951 204.269 429.505 207.249 425.731L205.625 418.051Z" fill="black"/>
<path d="M206.057 438.493C206.915 437.847 207.857 437.322 208.859 436.933C209.318 436.944 209.776 436.983 210.23 437.052C210.636 437.096 211.045 437.096 211.452 437.052C212.31 436.867 213.152 436.614 213.97 436.294C214.319 436.137 214.691 436.036 215.072 435.997C215.713 435.997 216.22 435.997 216.354 436.74C216.391 436.966 216.391 437.197 216.354 437.423C216.283 438.082 216.055 438.714 215.69 439.267C215.324 439.82 214.832 440.278 214.253 440.602C213.731 440.855 213.046 441.033 212.495 441.241C211.661 441.462 210.848 441.755 210.066 442.118C208.889 442.875 207.771 443.603 206.37 442.861C206.084 442.741 205.833 442.55 205.642 442.305C205.452 442.06 205.328 441.771 205.283 441.464C205.089 440.602 206.043 439.28 206.057 438.493Z" fill="#211C1C"/>
<path d="M213.15 395.158L199.352 396.034C198.369 399.169 198.384 401.977 199.471 408.068C200.256 411.99 201.332 415.848 202.69 419.611C202.061 421.68 202.03 423.884 202.601 425.969C203.733 429.698 205.894 439.132 205.894 439.132C206.897 438.2 208.064 437.459 209.336 436.948C209.336 436.948 208.665 431.258 208.337 427.485C208.01 423.711 207.816 420.562 207.697 418.229C207.503 414.515 206.967 402.437 206.967 402.437H207.16C207.16 402.437 212.212 400.595 213.121 396.495L213.15 395.158Z" fill="#FFF2C1"/>
<path opacity="0.2" d="M206.981 402.437C208.646 401.663 210.196 400.663 211.586 399.466L208.01 402.809L208.65 413.995L206.981 402.437Z" fill="black"/>
<path d="M194.613 392.409C195.126 388.222 195.893 384.07 196.908 379.975C197.018 379.369 197.313 378.812 197.753 378.381C198.194 377.95 198.757 377.666 199.367 377.568C203.286 379.678 203.256 382.485 199.918 385.858C199.918 385.858 198.517 391.325 198.085 393.984C197.631 396.379 197.411 398.812 197.43 401.249C197.457 401.602 197.61 401.934 197.862 402.185C198.409 402.77 198.861 403.437 199.203 404.161C199.561 404.755 199.933 404.948 199.829 405.096C199.704 405.245 199.527 405.342 199.333 405.367C199.14 405.392 198.945 405.343 198.786 405.23C198.425 404.988 198.095 404.704 197.802 404.383C197.919 405.148 198.156 405.89 198.503 406.582C199.307 408.172 199.173 409.004 197.012 408.543C195.612 408.246 194.688 407.147 194.315 403.849C194.158 402.637 194.084 401.416 194.092 400.194C194.181 397.044 194.435 394.311 194.613 392.409Z" fill="#B16668"/>
<path d="M203.599 376.87L199.367 377.568C203.286 380.317 199.918 385.858 199.918 385.858L202.004 391.637C200.969 393.025 200.085 394.519 199.367 396.094C200.648 397.208 208.308 399.837 213.582 395.871C213.582 395.871 213.284 393.776 212.659 390.612C213.731 385.472 214.029 383.659 213.717 382.456C212.837 379.069 210.826 376.914 208.531 376.781L203.599 376.87Z" fill="#455A64"/>
<path d="M211.273 364.123C212.018 364.569 212.942 366.441 212.852 370.378C212.778 373.72 211.69 374.552 211.139 374.834C210.275 375.007 209.383 374.982 208.531 374.76V376.721C208.531 376.721 209.932 378.355 209.842 379.276C209.753 380.197 207.816 380.42 206.49 379.514C205.529 378.778 204.703 377.884 204.046 376.87V372.264C204.046 372.264 203.45 372.844 202.422 371.967C202.013 371.674 201.735 371.233 201.649 370.739C201.562 370.245 201.674 369.736 201.96 369.323C202.132 369.171 202.336 369.062 202.558 369.002C202.779 368.942 203.011 368.935 203.236 368.979C203.461 369.024 203.673 369.12 203.855 369.259C204.036 369.398 204.184 369.578 204.284 369.783C205.626 369.729 206.932 369.341 208.084 368.654C208.937 368.204 209.67 367.558 210.225 366.771C210.779 365.983 211.138 365.076 211.273 364.123Z" fill="#B16668"/>
<path d="M209.097 369.546C209.097 369.627 209.073 369.706 209.028 369.773C208.983 369.841 208.92 369.894 208.846 369.926C208.771 369.958 208.689 369.968 208.609 369.954C208.529 369.941 208.455 369.904 208.395 369.849C208.336 369.793 208.294 369.722 208.275 369.643C208.256 369.565 208.26 369.482 208.287 369.406C208.314 369.33 208.363 369.263 208.427 369.214C208.492 369.165 208.569 369.135 208.65 369.13C208.707 369.128 208.763 369.137 208.816 369.157C208.87 369.177 208.918 369.207 208.96 369.245C209.001 369.284 209.035 369.33 209.058 369.382C209.082 369.433 209.095 369.489 209.097 369.546Z" fill="#211C1C"/>
<path d="M209.216 372.383L210.184 372.68C210.167 372.747 210.137 372.809 210.095 372.863C210.053 372.917 210.001 372.962 209.941 372.996C209.881 373.029 209.815 373.05 209.747 373.057C209.678 373.064 209.609 373.057 209.544 373.037C209.414 372.993 209.307 372.9 209.246 372.777C209.184 372.655 209.174 372.513 209.216 372.383Z" fill="#9A4A4D"/>
<path d="M212.554 368.253L211.705 367.674C211.738 367.615 211.784 367.564 211.838 367.524C211.893 367.484 211.955 367.456 212.022 367.442C212.088 367.428 212.156 367.428 212.222 367.442C212.289 367.457 212.351 367.485 212.405 367.525C212.52 367.604 212.599 367.723 212.627 367.859C212.655 367.995 212.629 368.136 212.554 368.253Z" fill="#211C1C"/>
<path d="M212.36 369.293C212.372 369.356 212.369 369.42 212.353 369.481C212.338 369.542 212.308 369.599 212.268 369.648C212.227 369.697 212.177 369.736 212.119 369.763C212.062 369.79 211.999 369.804 211.935 369.804C211.872 369.804 211.809 369.79 211.752 369.763C211.694 369.736 211.644 369.697 211.603 369.648C211.563 369.599 211.533 369.542 211.517 369.481C211.502 369.42 211.499 369.356 211.511 369.293C211.507 369.237 211.514 369.181 211.533 369.128C211.551 369.075 211.58 369.027 211.617 368.985C211.655 368.944 211.7 368.91 211.751 368.886C211.802 368.863 211.857 368.85 211.913 368.848C211.972 368.846 212.031 368.856 212.086 368.877C212.142 368.899 212.192 368.932 212.234 368.974C212.275 369.015 212.308 369.065 212.33 369.12C212.352 369.175 212.362 369.234 212.36 369.293Z" fill="#211C1C"/>
<path d="M210.364 368.996L210.439 371.522L211.765 371.121L210.364 368.996Z" fill="#9A4A4D"/>
<path d="M208.516 374.715C207.428 374.567 205.223 373.928 204.88 373.066C205.013 373.511 205.284 373.901 205.655 374.181C206.551 374.708 207.513 375.112 208.516 375.384V374.715Z" fill="#9A4A4D"/>
<path d="M200.887 388.562L203.837 392.543L202.004 391.637L200.887 388.562Z" fill="#211C1C"/>
<path d="M201.841 360.587C202.4 360.904 202.849 361.383 203.126 361.961C203.404 362.539 203.497 363.189 203.393 363.821C203.289 364.454 202.993 365.039 202.545 365.499C202.097 365.959 201.518 366.271 200.887 366.392C200.256 366.514 199.602 366.44 199.015 366.18C198.427 365.919 197.933 365.486 197.601 364.938C197.268 364.389 197.111 363.752 197.153 363.112C197.194 362.473 197.431 361.861 197.832 361.36C198.276 360.747 198.938 360.325 199.683 360.182C200.428 360.038 201.199 360.183 201.841 360.587Z" fill="#211C1C"/>
<path d="M199.352 377.568C198.741 377.717 197.177 377.568 196.372 380.658C195.567 383.748 195.061 386.719 195.061 386.719C195.603 387.339 196.315 387.787 197.108 388.012C197.902 388.236 198.743 388.226 199.531 387.982C199.531 387.982 200.544 384.892 201.2 382.857C201.856 380.822 201.498 378.311 199.352 377.568Z" fill="#211C1C"/>
<path d="M96.3863 326.983C95.7628 323.523 95.5825 319.999 95.8498 316.494C95.8534 316.41 95.8849 316.328 95.9396 316.263C95.9942 316.198 96.0689 316.152 96.1521 316.134C96.2352 316.115 96.3222 316.124 96.3996 316.16C96.477 316.196 96.5404 316.256 96.58 316.331L99.277 321.308C99.277 321.308 99.59 324.962 99.9327 327.458C100.169 329.727 100.633 331.967 101.318 334.144C101.438 334.455 101.665 334.713 101.959 334.871C102.609 335.251 103.196 335.727 103.703 336.283C104.179 336.714 104.567 336.803 104.522 336.951C104.447 337.118 104.312 337.251 104.145 337.325C103.977 337.399 103.788 337.409 103.613 337.352C103.223 337.232 102.848 337.068 102.496 336.862C102.811 337.518 103.228 338.12 103.732 338.645C104.895 339.863 104.999 340.65 102.868 340.829C101.527 340.948 100.41 340.205 99.1727 337.352C98.7059 336.305 98.3077 335.228 97.9807 334.129C97.2505 331.261 96.7439 328.736 96.3863 326.983Z" fill="#FFA8A7"/>
<path d="M92.9146 314.964C94.956 314.964 97.3848 315.618 98.3981 317.49C99.2689 319.889 99.854 322.382 100.141 324.918C100.141 324.918 99.3667 326.582 96.5057 326.403L92.9146 314.964Z" fill="#FFF2C1"/>
<path opacity="0.2" d="M92.9146 314.964C94.956 314.964 97.3848 315.618 98.3981 317.49C99.2689 319.889 99.854 322.382 100.141 324.918C100.141 324.918 99.3667 326.582 96.5057 326.403L92.9146 314.964Z" fill="black"/>
<path d="M76.5982 365.118C76.0915 364.866 75.7637 365.505 75.3018 366.025C74.9007 366.399 74.5943 366.862 74.4077 367.377C74.4182 367.783 74.5169 368.181 74.697 368.546C74.8771 368.91 75.1343 369.231 75.4508 369.486C75.8234 369.716 76.1468 370.016 76.4025 370.37C76.6583 370.725 76.8412 371.126 76.9409 371.551C76.9947 372.086 77.2017 372.595 77.5372 373.016C77.8727 373.438 78.3226 373.754 78.8333 373.928C79.4185 374.172 80.0466 374.298 80.681 374.298C81.3154 374.298 81.9435 374.172 82.5287 373.928C83.244 373.468 82.5287 372.963 81.59 371.536C80.2936 369.679 79.2803 368.342 79.2803 366.604L76.5982 365.118Z" fill="#211C1C"/>
<path d="M77.6412 363.603L76.5684 365.163C76.454 365.323 76.3725 365.503 76.3286 365.694C76.2847 365.886 76.2792 366.084 76.3124 366.277C76.3457 366.47 76.417 366.655 76.5223 366.821C76.6276 366.987 76.7648 367.13 76.926 367.243C77.2506 367.436 77.633 367.509 78.0063 367.449C78.3796 367.39 78.7198 367.201 78.9674 366.916L80.6512 365.103L77.6412 363.603Z" fill="#FFA8A7"/>
<path d="M97.3403 333.015C97.3403 335.02 96.8336 343.087 95.4479 346.653C94.0621 350.218 93.2723 352.446 92.8402 353.189C92.4081 353.932 79.8615 366.114 79.8615 366.114C79.2638 366.064 78.6989 365.82 78.2525 365.421C77.8061 365.021 77.5025 364.488 77.3879 363.901C77.3879 363.901 82.5288 355.18 83.6463 353.397C85.114 351.663 86.8137 350.139 88.6977 348.866L88.3401 333.252L97.3403 333.015Z" fill="#37474F"/>
<path d="M94.5841 375.554L97.229 374.956L96.3529 371.102L93.708 371.7L94.5841 375.554Z" fill="#FFA8A7"/>
<path d="M97.3403 333.015H84.6149C84.3417 334.87 84.1825 336.741 84.138 338.615C84.0337 344.112 89.1745 354.095 89.1745 354.095C88.9196 356.317 89.0303 358.565 89.5024 360.751C90.6871 364.754 92.0848 368.692 93.6895 372.547C94.2007 372.623 94.7223 372.587 95.2186 372.444C95.7149 372.3 96.1743 372.052 96.5654 371.715C96.5654 371.715 94.8667 356.666 94.4048 352.803C93.913 348.628 92.6465 341.007 92.6465 341.007C93.486 340.17 94.2489 339.261 94.9263 338.289C96.1036 336.725 96.9271 334.926 97.3403 333.015Z" fill="#37474F"/>
<path d="M79.5633 330.058C80.1444 324.19 82.2753 319.882 82.5435 318.396L84.2869 325.676C83.6795 327.602 83.182 329.561 82.7968 331.544C82.3668 333.786 82.1572 336.065 82.171 338.348C82.2 338.676 82.3484 338.983 82.5882 339.209C83.1102 339.758 83.5427 340.384 83.8697 341.066C84.2124 341.616 84.5551 341.809 84.4657 341.928C84.3489 342.07 84.1826 342.162 84.0003 342.187C83.8179 342.212 83.6329 342.167 83.4822 342.062C83.145 341.83 82.835 341.561 82.5584 341.26C82.6639 341.979 82.8853 342.676 83.214 343.325C83.974 344.81 83.8548 345.612 81.7239 345.167C80.4126 344.884 79.5484 343.859 79.2057 340.71C79.0541 339.572 78.9844 338.426 78.9971 337.278C79.161 334.411 79.3994 331.841 79.5633 330.058Z" fill="#FFA8A7"/>
<path d="M88.7124 315.083C86.2687 315.677 82.9458 316.435 81.9772 319.064C81.1838 321.575 80.5173 324.123 79.9805 326.7C80.5141 327.209 81.1608 327.585 81.8678 327.796C82.5748 328.008 83.3221 328.05 84.0484 327.919L84.6147 325.943V333.014C86.522 335.094 93.1678 336.06 97.34 333.014V319.807C97.3805 319.193 97.2954 318.577 97.0901 317.997C96.8847 317.417 96.5633 316.884 96.1454 316.431C95.7274 315.978 95.2216 315.615 94.6585 315.363C94.0955 315.11 93.4869 314.975 92.8698 314.964L88.7124 315.083Z" fill="#FFF2C1"/>
<path opacity="0.2" d="M84.6147 325.943L85.8357 322.11L84.6147 327.666V325.943Z" fill="black"/>
<path d="M97.7872 306.199C97.7961 306.953 97.5799 307.693 97.1662 308.324C96.7525 308.955 96.1598 309.45 95.4636 309.745C94.7674 310.039 93.999 310.121 93.2562 309.979C92.5133 309.838 91.8294 309.479 91.2914 308.949C90.7535 308.419 90.3857 307.741 90.2348 307.002C90.084 306.263 90.1569 305.496 90.4442 304.799C90.7316 304.101 91.2205 303.505 91.8487 303.085C92.477 302.665 93.2162 302.441 93.9726 302.441C94.9766 302.441 95.9401 302.835 96.6542 303.539C97.3684 304.242 97.7754 305.198 97.7872 306.199Z" fill="#211C1C"/>
<path d="M87.7887 304.283C87.5716 304.261 87.3523 304.287 87.1463 304.359C86.9403 304.43 86.7527 304.547 86.5967 304.699C86.0751 305.233 86.1943 306.184 86.5967 308.428L88.1911 308.621L87.7887 304.283Z" fill="#211C1C"/>
<path d="M88.5336 308.621C88.3101 308.754 87.9674 308.309 87.6693 307.997C87.554 307.868 87.4078 307.77 87.2444 307.713C87.0809 307.655 86.9056 307.64 86.7346 307.668C86.5637 307.696 86.4026 307.767 86.2665 307.874C86.1303 307.981 86.0234 308.12 85.9557 308.279C85.4789 309.289 86.5667 310.641 87.2223 311.087C87.399 311.245 87.622 311.341 87.8582 311.363C88.0944 311.384 88.3313 311.329 88.5336 311.206L88.7124 315.083C88.9977 315.705 89.4325 316.248 89.9784 316.662C90.5242 317.077 91.1642 317.351 91.8416 317.46C94.1363 317.772 93.6595 315.885 92.9145 314.964V313.553C93.4871 313.676 94.0757 313.706 94.6579 313.642C95.3205 313.157 95.8361 312.499 96.148 311.741C97.1222 309.814 97.34 307.594 96.7589 305.516C95.9393 302.04 92.1843 301.936 89.9492 303.332C87.714 304.728 88.5336 308.621 88.5336 308.621Z" fill="#FFA8A7"/>
<path d="M88.5336 309.007C88.4293 309.007 87.9674 308.264 87.6693 307.997C87.3713 307.729 87.7885 304.283 87.7885 304.283C87.6786 303.925 87.6578 303.546 87.7279 303.178C87.7981 302.811 87.9569 302.466 88.1909 302.173C88.9955 301.326 90.5601 301.475 91.6926 301.43C93.4018 301.344 95.1152 301.383 96.8185 301.549C97.106 301.542 97.3846 301.649 97.5933 301.846C97.6629 301.961 97.7069 302.09 97.7223 302.223C97.7378 302.356 97.7243 302.491 97.6827 302.619C97.5244 303.365 97.1284 304.04 96.5537 304.543C95.979 305.047 95.2565 305.351 94.4939 305.412C92.9792 305.407 91.4733 305.181 90.0237 304.743C89.5915 304.743 89.5021 305.1 89.2637 306.229C89.0253 307.358 88.9359 309.007 88.5336 309.007Z" fill="#211C1C"/>
<path d="M87.8036 304.535L86.3135 303.778C86.3594 303.683 86.4239 303.599 86.5031 303.529C86.5822 303.46 86.6745 303.407 86.7745 303.374C86.8745 303.341 86.9801 303.328 87.0852 303.336C87.1903 303.344 87.2927 303.373 87.3863 303.421C87.5888 303.515 87.7461 303.684 87.8242 303.893C87.9023 304.101 87.8949 304.332 87.8036 304.535Z" fill="#211C1C"/>
<path d="M92.8994 313.553C91.928 313.366 90.9755 313.093 90.0533 312.736C89.6141 312.513 89.2549 312.16 89.0251 311.726C89.1348 312.157 89.3327 312.562 89.6063 312.914C90.1427 313.612 92.8994 314.117 92.8994 314.117V313.553Z" fill="#F28F8F"/>
<path d="M92.9733 308.531C92.9851 308.594 92.9829 308.658 92.967 308.719C92.9511 308.78 92.9219 308.837 92.8813 308.886C92.8408 308.935 92.79 308.974 92.7326 309.001C92.6751 309.028 92.6124 309.042 92.549 309.042C92.4855 309.042 92.4228 309.028 92.3654 309.001C92.3079 308.974 92.2571 308.935 92.2166 308.886C92.1761 308.837 92.1469 308.78 92.131 308.719C92.1151 308.658 92.1129 308.594 92.1246 308.531C92.1129 308.469 92.1151 308.405 92.131 308.344C92.1469 308.283 92.1761 308.226 92.2166 308.177C92.2571 308.128 92.3079 308.089 92.3654 308.062C92.4228 308.035 92.4855 308.021 92.549 308.021C92.6124 308.021 92.6751 308.035 92.7326 308.062C92.79 308.089 92.8408 308.128 92.8813 308.177C92.9219 308.226 92.9511 308.283 92.967 308.344C92.9829 308.405 92.9851 308.469 92.9733 308.531Z" fill="#211C1C"/>
<path d="M92.5265 306.897L91.6183 307.403C91.5529 307.278 91.5381 307.132 91.5769 306.997C91.6157 306.862 91.7051 306.746 91.8267 306.675C91.8869 306.642 91.9533 306.621 92.0217 306.614C92.0901 306.608 92.1591 306.615 92.2246 306.636C92.2901 306.657 92.3506 306.691 92.4025 306.736C92.4544 306.781 92.4966 306.836 92.5265 306.897Z" fill="#211C1C"/>
<path d="M92.721 311.354L93.6888 311.711C93.6671 311.777 93.6323 311.837 93.5866 311.89C93.541 311.942 93.4852 311.985 93.4228 312.015C93.3604 312.045 93.2925 312.063 93.2231 312.067C93.1537 312.071 93.0843 312.061 93.0188 312.038C92.9537 312.013 92.8942 311.976 92.8438 311.928C92.7934 311.88 92.7531 311.822 92.7253 311.759C92.6976 311.695 92.6829 311.626 92.6822 311.557C92.6814 311.487 92.6946 311.419 92.721 311.354Z" fill="#F28F8F"/>
<path d="M96.7584 307.299L95.9246 306.66C95.9631 306.602 96.0131 306.554 96.0714 306.516C96.1297 306.479 96.1951 306.454 96.2635 306.443C96.3319 306.431 96.4019 306.434 96.4691 306.451C96.5363 306.468 96.5993 306.499 96.6542 306.541C96.7608 306.633 96.8302 306.761 96.8494 306.9C96.8685 307.04 96.8362 307.181 96.7584 307.299Z" fill="#211C1C"/>
<path d="M96.5349 308.383C96.5466 308.445 96.5444 308.509 96.5285 308.571C96.5126 308.632 96.4834 308.689 96.4429 308.738C96.4023 308.787 96.3516 308.826 96.2941 308.853C96.2367 308.88 96.174 308.894 96.1105 308.894C96.047 308.894 95.9843 308.88 95.9269 308.853C95.8695 308.826 95.8187 308.787 95.7781 308.738C95.7376 308.689 95.7084 308.632 95.6925 308.571C95.6766 308.509 95.6744 308.445 95.6862 308.383C95.6744 308.321 95.6766 308.257 95.6925 308.195C95.7084 308.134 95.7376 308.077 95.7781 308.028C95.8187 307.98 95.8695 307.94 95.9269 307.913C95.9843 307.887 96.047 307.873 96.1105 307.873C96.174 307.873 96.2367 307.887 96.2941 307.913C96.3516 307.94 96.4023 307.98 96.4429 308.028C96.4834 308.077 96.5126 308.134 96.5285 308.195C96.5444 308.257 96.5466 308.321 96.5349 308.383Z" fill="#211C1C"/>
<path d="M94.509 308.368L94.1067 310.879L95.5074 310.715L94.509 308.368Z" fill="#F28F8F"/>
<path d="M96.9229 373.661L96.8335 373.274C97.1166 373.274 98.3236 375.295 99.4859 376.157C100.648 377.018 101.9 377.642 102.466 378.073C103.032 378.504 102.123 379.796 100.216 379.9C99.1033 379.966 97.9955 379.708 97.0272 379.157C96.4908 378.667 96.1033 377.835 95.6861 377.464C95.2689 377.092 94.4195 376.795 94.196 376.335C94.0153 375.862 93.9589 375.35 94.0321 374.849C94.0321 374.359 94.0321 373.809 94.2258 373.824V374.106C94.7239 374.357 95.2772 374.48 95.8351 374.463C96.312 374.507 97.1464 374.403 96.9229 373.661Z" fill="#211C1C"/>
<path d="M94.0768 350.248C94.0768 350.248 92.9443 342.255 92.5867 341.007C93.4934 340.521 94.3345 339.922 95.09 339.224C94.5657 339.974 93.9933 340.688 93.3764 341.364L94.0768 350.248Z" fill="#211C1C"/>
<path d="M87.2671 349.98C87.815 351.391 88.452 352.765 89.1744 354.095C89.1744 354.095 89.0254 356.665 89.0552 357.185L88.34 357.794C88.3226 356.633 88.4274 355.473 88.6529 354.333C88.035 352.936 87.5703 351.476 87.2671 349.98Z" fill="#211C1C"/>
</svg>
