<svg width="1357" height="220" viewBox="0 0 1357 220" fill="none" xmlns="http://www.w3.org/2000/svg">
<path d="M268.771 33.896H279.331V86.504H268.771L247.747 67.976L226.723 86.504H216.259V33.896H226.723V72.488L247.747 53.96L268.771 72.488V33.896ZM351.076 33.896V86.504H340.516V65.48H298.468V86.504H288.004V33.896H298.468V54.92H340.516V33.896H351.076ZM422.821 33.896V44.456H370.213V54.92H412.261V65.48H370.213V70.76L375.493 75.944H422.821V86.504H371.173L359.749 75.08V33.896H422.821ZM494.566 44.456L478.822 60.2L494.566 86.504H482.278L469.702 65.48H441.958V86.504H431.494V33.896H494.566V44.456ZM469.222 54.92L479.686 44.456H441.958V54.92H469.222ZM566.311 33.896V44.456H513.703V54.92H555.751V65.48H513.703V70.76L518.983 75.944H566.311V86.504H514.663L503.239 75.08V33.896H566.311ZM1121.78 91.688V76.04H1132.24V91.688H1121.78ZM485.738 133.896L512.042 186.504H500.33L480.458 146.952L460.682 186.504H448.97L475.274 133.896H485.738ZM583.787 133.896V186.504H573.227L531.179 148.104V186.504H520.715V133.896H531.179L573.227 172.296V133.896H583.787ZM633.26 133.896L655.532 156.264V186.504H592.46V133.896H633.26ZM644.972 175.944V160.584L628.844 144.456H602.924V175.944H644.972ZM941.707 186.504H931.243V133.896H941.707L962.731 152.424L983.755 133.896H994.315V186.504H983.755V147.912L962.731 166.44L941.707 147.912V186.504ZM1066.06 133.896V144.456H1013.45V154.92H1055.5V165.48H1013.45V170.76L1018.73 175.944H1066.06V186.504H1014.41L1002.99 175.08V133.896H1066.06ZM1137.8 133.896V144.456H1085.2V154.92H1127.24V165.48H1085.2V170.76L1090.48 175.944H1137.8V186.504H1086.16L1074.73 175.08V133.896H1137.8ZM1172.78 144.456H1146.48V133.896H1209.55V144.456H1183.25V186.504H1172.78V144.456Z" fill="#211C1C"/>
<path d="M663.957 44.456L648.213 60.2L663.957 75.944V86.504H600.885V33.896H663.957V44.456ZM611.349 44.456V54.92H638.613L649.077 44.456H611.349ZM649.077 75.944L638.613 65.48H611.349V75.944H649.077ZM725.142 34.088H735.606V75.272L724.182 86.696H683.958L672.534 75.272V34.088H683.094V70.952L688.278 76.136H719.862L725.142 70.952V34.088ZM806.978 44.456H754.37V49.64L759.65 54.92H795.554L806.978 66.344V86.504H743.906V75.944H796.418V70.76L791.234 65.48H755.33L743.906 54.056V33.896H806.978V44.456ZM815.555 86.504V33.896H826.115V86.504H815.555ZM897.968 33.896V86.504H887.408L845.36 48.104V86.504H834.896V33.896H845.36L887.408 72.296V33.896H897.968ZM969.713 33.896V44.456H917.105V54.92H959.153V65.48H917.105V70.76L922.385 75.944H969.713V86.504H918.065L906.641 75.08V33.896H969.713ZM1041.46 44.456H988.85V49.64L994.13 54.92H1030.03L1041.46 66.344V86.504H978.386V75.944H1030.9V70.76L1025.71 65.48H989.81L978.386 54.056V33.896H1041.46V44.456ZM1113.2 44.456H1060.6V49.64L1065.88 54.92H1101.78L1113.2 66.344V86.504H1050.13V75.944H1102.64V70.76L1097.46 65.48H1061.56L1050.13 54.056V33.896H1113.2V44.456Z" fill="#157EBF"/>
<path d="M176.889 133.896L199.161 156.264V186.504H136.089V133.896H176.889ZM188.601 175.944V160.584L172.473 144.456H146.553V175.944H188.601ZM244.602 133.896L270.906 186.504H259.194L239.322 146.952L219.546 186.504H207.834L234.138 133.896H244.602ZM305.883 144.456H279.579V133.896H342.651V144.456H316.347V186.504H305.883V144.456ZM388.092 133.896L414.396 186.504H402.684L382.812 146.952L363.036 186.504H351.324L377.628 133.896H388.092Z" fill="#F3A310"/>
<path d="M730.907 133.896L753.179 156.264V186.504H690.107V133.896H730.907ZM742.619 175.944V160.584L726.491 144.456H700.571V175.944H742.619ZM824.924 133.896V144.456H772.316V154.92H814.364V165.48H772.316V170.76L777.596 175.944H824.924V186.504H773.276L761.852 175.08V133.896H824.924ZM886.109 133.896H896.669V165.48L870.365 186.504H859.901L833.597 165.48V133.896H844.061V160.392L863.549 175.944H866.717L886.109 160.392V133.896Z" fill="#0540F2"/>
</svg>
